<svg width="106" height="95" viewBox="0 0 106 95" fill="none" xmlns="http://www.w3.org/2000/svg">
<rect x="2.21045" y="2.27539" width="102.192" height="74.8027" rx="5.5" fill="white" stroke="black" stroke-width="3"/>
<path d="M1.70264 63.4941H104.911" stroke="black" stroke-width="3"/>
<mask id="path-3-inside-1_65_639" fill="white">
<path fill-rule="evenodd" clip-rule="evenodd" d="M54.6714 75.4023H46.007C46.007 75.4023 44.2907 83.4295 41.1296 87.5175C37.9685 91.6054 33.2114 94.4561 33.2114 94.4561H54.6714H76.1313C76.1313 94.4561 71.3743 91.6054 68.2132 87.5175C65.052 83.4295 63.3358 75.4023 63.3358 75.4023H54.6714Z"/>
</mask>
<path fill-rule="evenodd" clip-rule="evenodd" d="M54.6714 75.4023H46.007C46.007 75.4023 44.2907 83.4295 41.1296 87.5175C37.9685 91.6054 33.2114 94.4561 33.2114 94.4561H54.6714H76.1313C76.1313 94.4561 71.3743 91.6054 68.2132 87.5175C65.052 83.4295 63.3358 75.4023 63.3358 75.4023H54.6714Z" fill="white"/>
<path d="M46.007 75.4023V72.4023H43.5806L43.0733 74.7751L46.007 75.4023ZM41.1296 87.5175L43.5028 89.3526L41.1296 87.5175ZM33.2114 94.4561L31.6694 91.8827L22.3687 97.4561H33.2114V94.4561ZM76.1313 94.4561V97.4561H86.9741L77.6734 91.8827L76.1313 94.4561ZM68.2132 87.5175L65.8399 89.3526V89.3526L68.2132 87.5175ZM63.3358 75.4023L66.2695 74.7751L65.7622 72.4023H63.3358V75.4023ZM46.007 78.4023H54.6714V72.4023H46.007V78.4023ZM43.5028 89.3526C45.4151 86.8797 46.7619 83.4354 47.6048 80.8602C48.0415 79.5265 48.3724 78.3316 48.5946 77.4688C48.706 77.0363 48.7908 76.6845 48.8485 76.4372C48.8774 76.3135 48.8996 76.2157 48.9149 76.1469C48.9226 76.1124 48.9286 76.0852 48.9329 76.0655C48.935 76.0557 48.9368 76.0477 48.9381 76.0417C48.9387 76.0387 48.9393 76.0362 48.9397 76.0342C48.9399 76.0332 48.9401 76.0323 48.9403 76.0315C48.9403 76.0311 48.9405 76.0306 48.9405 76.0305C48.9406 76.03 48.9407 76.0296 46.007 75.4023C43.0733 74.7751 43.0734 74.7747 43.0734 74.7744C43.0735 74.7743 43.0735 74.774 43.0735 74.7739C43.0736 74.7736 43.0736 74.7735 43.0736 74.7734C43.0737 74.7734 43.0736 74.7738 43.0734 74.7746C43.073 74.7764 43.0722 74.78 43.071 74.7855C43.0686 74.7965 43.0646 74.8148 43.0589 74.8401C43.0476 74.8908 43.0298 74.9695 43.0056 75.0733C42.9571 75.2809 42.8832 75.5882 42.7843 75.9722C42.5859 76.7422 42.2902 77.8096 41.9026 78.9936C41.0972 81.454 40.0053 84.0672 38.7564 85.6823L43.5028 89.3526ZM33.2114 94.4561C34.7535 97.0294 34.7539 97.0291 34.7544 97.0289C34.7546 97.0287 34.755 97.0285 34.7554 97.0282C34.7561 97.0278 34.7569 97.0273 34.7578 97.0268C34.7595 97.0258 34.7615 97.0246 34.7638 97.0232C34.7684 97.0204 34.7742 97.0169 34.7811 97.0127C34.7949 97.0044 34.8132 96.9932 34.8359 96.9793C34.8812 96.9514 34.9439 96.9126 35.0224 96.8631C35.1793 96.7641 35.3998 96.6223 35.6713 96.4409C36.2132 96.0787 36.9635 95.5547 37.8188 94.8941C39.5076 93.5898 41.7053 91.6772 43.5028 89.3526L38.7564 85.6823C37.3928 87.4457 35.6314 89.0024 34.1514 90.1454C33.4223 90.7085 32.7858 91.1526 32.337 91.4527C32.113 91.6023 31.9372 91.7152 31.8216 91.7881C31.7639 91.8245 31.7213 91.8509 31.6954 91.8668C31.6824 91.8748 31.6737 91.8801 31.6693 91.8828C31.6671 91.8841 31.666 91.8848 31.666 91.8848C31.666 91.8848 31.6663 91.8846 31.6668 91.8842C31.6671 91.8841 31.6675 91.8839 31.6679 91.8836C31.6681 91.8835 31.6685 91.8833 31.6686 91.8832C31.669 91.883 31.6694 91.8827 33.2114 94.4561ZM54.6714 91.4561H33.2114V97.4561H54.6714V91.4561ZM54.6714 97.4561H76.1313V91.4561H54.6714V97.4561ZM76.1313 94.4561C77.6734 91.8827 77.6738 91.883 77.6742 91.8832C77.6743 91.8833 77.6747 91.8835 77.6749 91.8836C77.6753 91.8839 77.6757 91.8841 77.676 91.8842C77.6765 91.8846 77.6768 91.8848 77.6768 91.8848C77.6768 91.8848 77.6757 91.8841 77.6735 91.8828C77.6691 91.8801 77.6603 91.8748 77.6474 91.8668C77.6215 91.8509 77.5789 91.8245 77.5211 91.7881C77.4055 91.7152 77.2297 91.6023 77.0058 91.4527C76.557 91.1526 75.9204 90.7085 75.1914 90.1454C73.7114 89.0024 71.95 87.4457 70.5864 85.6823L65.8399 89.3526C67.6374 91.6772 69.8351 93.5898 71.524 94.8941C72.3793 95.5547 73.1296 96.0787 73.6715 96.4409C73.943 96.6223 74.1635 96.7641 74.3204 96.8631C74.3989 96.9126 74.4616 96.9514 74.5069 96.9793C74.5296 96.9932 74.5479 97.0044 74.5617 97.0127C74.5686 97.0169 74.5744 97.0204 74.579 97.0232C74.5813 97.0246 74.5833 97.0258 74.585 97.0268C74.5859 97.0273 74.5867 97.0278 74.5874 97.0282C74.5877 97.0285 74.5882 97.0287 74.5884 97.0289C74.5889 97.0291 74.5893 97.0294 76.1313 94.4561ZM70.5864 85.6823C69.3375 84.0672 68.2456 81.454 67.4402 78.9936C67.0526 77.8096 66.7569 76.7422 66.5585 75.9722C66.4596 75.5882 66.3856 75.2809 66.3372 75.0733C66.3129 74.9695 66.2951 74.8908 66.2838 74.8401C66.2782 74.8148 66.2741 74.7964 66.2717 74.7855C66.2705 74.78 66.2698 74.7764 66.2694 74.7746C66.2692 74.7738 66.2691 74.7734 66.2691 74.7734C66.2691 74.7735 66.2692 74.7736 66.2692 74.7739C66.2693 74.774 66.2693 74.7743 66.2693 74.7744C66.2694 74.7747 66.2695 74.7751 63.3358 75.4023C60.4021 76.0296 60.4022 76.03 60.4023 76.0305C60.4023 76.0306 60.4024 76.0311 60.4025 76.0315C60.4027 76.0323 60.4029 76.0332 60.4031 76.0342C60.4035 76.0362 60.4041 76.0387 60.4047 76.0417C60.406 76.0477 60.4077 76.0557 60.4099 76.0655C60.4142 76.0852 60.4202 76.1124 60.4278 76.1469C60.4432 76.2157 60.4654 76.3135 60.4943 76.4372C60.552 76.6845 60.6368 77.0363 60.7482 77.4688C60.9704 78.3316 61.3013 79.5265 61.7379 80.8602C62.5809 83.4354 63.9277 86.8797 65.8399 89.3526L70.5864 85.6823ZM63.3358 72.4023H54.6714V78.4023H63.3358V72.4023Z" fill="black" mask="url(#path-3-inside-1_65_639)"/>
<rect x="32.3054" y="92.554" width="44.7319" height="1.26807" fill="#FFFEFE" stroke="black" stroke-width="1.26807"/>
<path d="M3.51807 7.81641C3.51807 5.60727 5.30893 3.81641 7.51807 3.81641H99.0952C101.304 3.81641 103.095 5.60727 103.095 7.81641V62.1943H3.51807V7.81641Z" fill="#F5FDFF"/>
<circle cx="28.894" cy="32.5312" r="15.5693" fill="#9FBFA6" stroke="black" stroke-width="3"/>
<path d="M29.1147 33.005V17.2138C30.722 17.0919 34.9294 17.6816 38.9004 21.0153C42.8714 24.3491 43.9114 30.3975 43.9351 33.005H29.1147Z" fill="#FBE10C" stroke="black"/>
<path d="M59.8501 25.6088L68.98 15.2875L82.8731 25.6088L94.3848 12.9062" stroke="black" stroke-width="3"/>
<rect x="63.1294" y="40.4121" width="4" height="10.3652" fill="#9FBFA6"/>
<rect x="84.1118" y="43.4453" width="4" height="7.33203" fill="#9FBFA6"/>
<rect x="70.1235" y="35.3555" width="4" height="15.4219" fill="#9FBFA6"/>
<rect x="77.1177" y="37.3779" width="4" height="13.3994" fill="#9FBFA6"/>
<line x1="58.8638" y1="54.8027" x2="91.2524" y2="54.8027" stroke="#9FBFA6" stroke-width="3"/>
<path d="M28.0562 18.0898V34.3652H43.9346" stroke="black" stroke-width="3"/>
</svg>
