<svg width="19" height="20" viewBox="0 0 19 20" fill="none" xmlns="http://www.w3.org/2000/svg">
<path d="M16.1889 16.6892H13.3737V12.2804C13.3737 11.2291 13.3549 9.87567 11.9095 9.87567C10.4432 9.87567 10.2189 11.0211 10.2189 12.2038V16.6889H7.4037V7.62258H10.1063V8.86159H10.1441C10.6952 7.91934 11.7199 7.35657 12.8107 7.39706C15.664 7.39706 16.1901 9.27391 16.1901 11.7156L16.1889 16.6892ZM4.22721 6.38327C3.32494 6.38343 2.59338 5.65212 2.59322 4.74983C2.59305 3.84754 3.32435 3.11597 4.22662 3.1158C5.12889 3.11564 5.86045 3.84696 5.86061 4.74924C5.86069 5.18254 5.68864 5.59812 5.38232 5.90456C5.076 6.211 4.66049 6.3832 4.22721 6.38327ZM5.63481 16.6892H2.81667V7.62258H5.63481V16.6892ZM17.5924 0.501417H1.40203C0.636841 0.492781 0.00933873 1.10573 0 1.87093V18.1288C0.00901899 18.8944 0.636471 19.5079 1.40203 19.4999H17.5924C18.3595 19.5094 18.9894 18.8959 19 18.1288V1.86975C18.9891 1.10304 18.3591 0.490132 17.5924 0.50012" fill="#5F6669"/>
</svg>
