<svg width="19" height="16" viewBox="0 0 19 16" fill="none" xmlns="http://www.w3.org/2000/svg">
<g clip-path="url(#clip0_15_454)">
<path d="M19 2.13304C18.3009 2.44307 17.5497 2.6526 16.7611 2.74684C17.566 2.26439 18.184 1.50047 18.4751 0.590256C17.7219 1.03692 16.8877 1.36133 15.9998 1.53619C15.2887 0.778595 14.2756 0.305176 13.1545 0.305176C11.0016 0.305176 9.25627 2.05047 9.25627 4.20317C9.25627 4.50868 9.29081 4.8062 9.35725 5.09149C6.11754 4.92893 3.24527 3.37705 1.32268 1.01871C0.987147 1.59443 0.794916 2.26404 0.794916 2.97841C0.794916 4.33077 1.48315 5.5239 2.52909 6.22291C1.89006 6.20269 1.28904 6.02735 0.763433 5.73539C0.763155 5.75165 0.763155 5.76798 0.763155 5.78438C0.763155 7.67305 2.10683 9.24857 3.89007 9.60662C3.56294 9.69572 3.21858 9.74332 2.86303 9.74332C2.61187 9.74332 2.36765 9.71893 2.12969 9.67341C2.6257 11.2221 4.06527 12.3491 5.77103 12.3806C4.43695 13.426 2.75614 14.0492 0.92988 14.0492C0.615264 14.0492 0.304956 14.0308 0 13.9948C1.72507 15.1008 3.77408 15.7461 5.97542 15.7461C13.1454 15.7461 17.0662 9.80629 17.0662 4.65518C17.0662 4.48616 17.0624 4.31805 17.0549 4.15091C17.8165 3.60132 18.4774 2.91475 19 2.13304Z" fill="#5F6669"/>
</g>
<defs>
<clipPath id="clip0_15_454">
<rect width="19" height="15.5117" fill="white" transform="translate(0 0.244141)"/>
</clipPath>
</defs>
</svg>
