<svg width="19" height="19" viewBox="0 0 19 19" fill="none" xmlns="http://www.w3.org/2000/svg">
<path d="M9.5 0C7.6211 0 5.78436 0.557166 4.22209 1.60104C2.65982 2.64491 1.44219 4.12861 0.72315 5.86452C0.00411635 7.60039 -0.184016 9.51056 0.182544 11.3534C0.549104 13.1962 1.45389 14.889 2.7825 16.2175C4.11109 17.5461 5.80383 18.4509 7.64664 18.8175C9.48951 19.184 11.3996 18.9959 13.1355 18.2769C14.8714 17.5578 16.3551 16.3402 17.399 14.778C18.4429 13.2157 19 11.3789 19 9.5C19 6.98044 17.9991 4.56409 16.2176 2.78249C14.4359 1.00089 12.0196 0 9.5 0ZM9.5 17.5385C7.91019 17.5385 6.35601 17.067 5.03408 16.1837C3.71216 15.3005 2.68185 14.045 2.07344 12.5762C1.46503 11.1073 1.30584 9.4911 1.616 7.9318C1.92617 6.37248 2.69176 4.94015 3.81596 3.81595C4.94016 2.69176 6.37248 1.92616 7.9318 1.616C9.4911 1.30583 11.1073 1.46502 12.5762 2.07344C14.045 2.68185 15.3005 3.71216 16.1837 5.03408C17.067 6.356 17.5385 7.91012 17.5385 9.5C17.5385 11.632 16.6916 13.6765 15.1841 15.1841C13.6765 16.6916 11.632 17.5385 9.5 17.5385Z" fill="#5F6669"/>
<path d="M5.69318 9.31008C5.76112 9.37856 5.84195 9.43296 5.93099 9.47002C6.02005 9.50716 6.11556 9.52622 6.21203 9.52622C6.3085 9.52622 6.40402 9.50716 6.49307 9.47002C6.58212 9.43296 6.66294 9.37856 6.73088 9.31008L8.4482 7.59278C8.77085 7.26544 8.96765 6.83473 9.00382 6.37652C9.03999 5.91832 8.91325 5.46205 8.64597 5.08814C8.37862 4.71425 7.98792 4.44672 7.54261 4.33273C7.09737 4.21874 6.62613 4.26561 6.21203 4.46506C5.7973 4.2533 5.32032 4.19746 4.86788 4.3077C4.41545 4.41795 4.01763 4.68694 3.74679 5.06576C3.47596 5.44457 3.35012 5.90802 3.39216 6.37179C3.4342 6.83556 3.64133 7.26882 3.97587 7.59278L5.69318 9.31008ZM5.00626 5.84622C5.05061 5.79979 5.10391 5.76284 5.16295 5.7376C5.22198 5.71235 5.28552 5.69933 5.34972 5.69933C5.41392 5.69933 5.47747 5.71235 5.5365 5.7376C5.59553 5.76284 5.64883 5.79979 5.69318 5.84622C5.76112 5.91471 5.84195 5.96908 5.93099 6.00618C6.02005 6.04328 6.11556 6.06238 6.21203 6.06238C6.3085 6.06238 6.40402 6.04328 6.49307 6.00618C6.58212 5.96908 6.66294 5.91471 6.73088 5.84622C6.77575 5.8007 6.82922 5.76456 6.88819 5.73989C6.94717 5.71522 7.0104 5.70252 7.07432 5.70252C7.13824 5.70252 7.20154 5.71522 7.26049 5.73989C7.31944 5.76456 7.37294 5.8007 7.41781 5.84622C7.46419 5.89057 7.50119 5.94387 7.52646 6.0029C7.55165 6.06194 7.5647 6.12547 7.5647 6.18968C7.5647 6.25389 7.55165 6.31742 7.52646 6.37646C7.50119 6.43549 7.46419 6.48879 7.41781 6.53314L6.21203 7.76086L5.00626 6.57699C4.95984 6.53264 4.92289 6.47934 4.89763 6.4203C4.87239 6.36127 4.85937 6.29773 4.85937 6.23352C4.85937 6.16932 4.87239 6.10579 4.89763 6.04675C4.92289 5.98772 4.95984 5.93441 5.00626 5.89006V5.84622Z" fill="#5F6669"/>
<path d="M12.27 9.31008C12.3379 9.37856 12.4187 9.43296 12.5078 9.47002C12.5968 9.50716 12.6924 9.52622 12.7888 9.52622C12.8853 9.52622 12.9809 9.50716 13.0699 9.47002C13.1589 9.43296 13.2397 9.37856 13.3077 9.31008L15.025 7.59278C15.3477 7.26544 15.5445 6.83473 15.5806 6.37652C15.6168 5.91832 15.4901 5.46205 15.2228 5.08814C14.9554 4.71425 14.5647 4.44672 14.1194 4.33273C13.6742 4.21874 13.2029 4.26561 12.7888 4.46506C12.3741 4.2533 11.8971 4.19746 11.4447 4.3077C10.9923 4.41795 10.5944 4.68694 10.3236 5.06576C10.0528 5.44457 9.92693 5.90802 9.96897 6.37179C10.011 6.83556 10.2182 7.26882 10.5527 7.59278L12.27 9.31008ZM11.5831 5.84622C11.6274 5.79979 11.6807 5.76284 11.7398 5.7376C11.7988 5.71235 11.8623 5.69933 11.9265 5.69933C11.9907 5.69933 12.0543 5.71235 12.1133 5.7376C12.1723 5.76284 12.2256 5.79979 12.27 5.84622C12.3379 5.91471 12.4187 5.96908 12.5078 6.00618C12.5968 6.04328 12.6924 6.06238 12.7888 6.06238C12.8853 6.06238 12.9809 6.04328 13.0699 6.00618C13.1589 5.96908 13.2397 5.91471 13.3077 5.84622C13.3526 5.8007 13.406 5.76456 13.465 5.73989C13.524 5.71522 13.5872 5.70252 13.6511 5.70252C13.715 5.70252 13.7783 5.71522 13.8373 5.73989C13.8962 5.76456 13.9497 5.8007 13.9946 5.84622C14.041 5.89057 14.078 5.94387 14.1032 6.0029C14.1285 6.06194 14.1415 6.12547 14.1415 6.18968C14.1415 6.25389 14.1285 6.31742 14.1032 6.37646C14.078 6.43549 14.041 6.48879 13.9946 6.53314L12.7888 7.76086L11.5831 6.57699C11.5366 6.53264 11.4997 6.47934 11.4744 6.4203C11.4492 6.36127 11.4362 6.29773 11.4362 6.23352C11.4362 6.16932 11.4492 6.10579 11.4744 6.04675C11.4997 5.98772 11.5366 5.93441 11.5831 5.89006V5.84622Z" fill="#5F6669"/>
<path d="M14.6154 10.2308C14.4216 10.2308 14.2358 10.3079 14.0987 10.4449C13.9616 10.5819 13.8847 10.7678 13.8847 10.9616C13.8847 12.9785 11.9189 14.6155 9.50001 14.6155C7.08116 14.6155 5.11541 12.9785 5.11541 10.9616C5.11541 10.7678 5.03842 10.5819 4.90137 10.4449C4.76433 10.3079 4.57845 10.2308 4.38464 10.2308C4.19083 10.2308 4.00496 10.3079 3.86791 10.4449C3.73086 10.5819 3.65387 10.7678 3.65387 10.9616C3.65387 13.7824 6.27734 16.0771 9.50001 16.0771C12.7227 16.0771 15.3462 13.7824 15.3462 10.9616C15.3462 10.7678 15.2692 10.5819 15.1322 10.4449C14.9951 10.3079 14.8093 10.2308 14.6154 10.2308Z" fill="#5F6669"/>
</svg>
