<svg width="19" height="16" viewBox="0 0 19 16" fill="none" xmlns="http://www.w3.org/2000/svg">
<path fill-rule="evenodd" clip-rule="evenodd" d="M1 0.5H18C18.5523 0.5 19 0.947715 19 1.5V14.5C19 15.0523 18.5523 15.5 18 15.5H1C0.447715 15.5 0 15.0523 0 14.5V1.5C0 0.947715 0.447715 0.5 1 0.5ZM2 3.91421V11.4454L5.18625 7.10047L2 3.91421ZM6.61711 8.53132L2.9734 13.5H16.0266L12.3829 8.53132L10.2071 10.7071C9.81658 11.0976 9.18342 11.0976 8.79289 10.7071L6.61711 8.53132ZM13.8137 7.10047L17 11.4454V3.91421L13.8137 7.10047ZM15.5858 2.5H3.41421L9.5 8.58579L15.5858 2.5Z" fill="#5F6669"/>
</svg>
