<svg width="484" height="339" viewBox="0 0 484 339" fill="none" xmlns="http://www.w3.org/2000/svg">
<rect x="384.172" y="255.41" width="90.6716" height="166.343" transform="rotate(-180 384.172 255.41)" fill="#3969A7"/>
<rect x="303.662" y="100.738" width="40.5" height="19" rx="2.5" stroke="black"/>
<path d="M310.775 111.147V110.238L318.093 106.511V107.966L312.48 110.67L312.525 110.579V110.806L312.48 110.716L318.093 113.42V114.875L310.775 111.147ZM325.049 103.056L321.299 116.988H320.072L323.822 103.056H325.049ZM334.343 111.147L327.025 114.875V113.42L332.639 110.716L332.593 110.806V110.579L332.639 110.67L327.025 107.966V106.511L334.343 110.238V111.147Z" fill="black"/>
<line x1="303.162" y1="128.738" x2="377.162" y2="128.738" stroke="black"/>
<line x1="303.162" y1="136.738" x2="334.162" y2="136.738" stroke="black"/>
<line x1="303.162" y1="143.738" x2="319.162" y2="143.738" stroke="black"/>
<line x1="303.162" y1="150.738" x2="348.162" y2="150.738" stroke="black"/>
<line x1="303.162" y1="157.738" x2="360.162" y2="157.738" stroke="black"/>
<line x1="303.162" y1="164.738" x2="334.162" y2="164.738" stroke="black"/>
<line x1="303.162" y1="171.738" x2="368.162" y2="171.738" stroke="black"/>
<line x1="303.162" y1="178.738" x2="345.162" y2="178.738" stroke="black"/>
<line x1="303.162" y1="185.738" x2="345.162" y2="185.738" stroke="black"/>
<line x1="303.162" y1="192.738" x2="360.162" y2="192.738" stroke="black"/>
<line x1="303.162" y1="199.738" x2="360.162" y2="199.738" stroke="black"/>
<line x1="303.162" y1="206.738" x2="354.162" y2="206.738" stroke="black"/>
<line x1="303.162" y1="213.738" x2="371.162" y2="213.738" stroke="black"/>
<line x1="303.162" y1="220.738" x2="355.162" y2="220.738" stroke="black"/>
<line x1="324.162" y1="143.738" x2="334.162" y2="143.738" stroke="black"/>
<line x1="340.162" y1="143.738" x2="351.162" y2="143.738" stroke="black"/>
<line x1="352.162" y1="150.738" x2="365.162" y2="150.738" stroke="black"/>
<line x1="350.162" y1="178.738" x2="364.162" y2="178.738" stroke="black"/>
<rect x="276.745" y="112.606" width="82.25" height="163.674" transform="rotate(90 276.745 112.606)" fill="#78B0BF"/>
<rect x="125.766" y="125.062" width="64.6475" height="55.877" rx="3.5" stroke="black"/>
<rect x="204.676" y="125.062" width="64.6475" height="55.877" rx="3.5" stroke="black"/>
<rect x="0.0942383" y="85.8564" width="100" height="163.674" fill="#FC4665"/>
<rect x="323.094" y="135.106" width="79.75" height="179.462" transform="rotate(90 323.094 135.106)" fill="#FBE10C"/>
<path d="M54.5 269.326L54.5 212.938C54.5 208.002 50.4566 204 45.4687 204C40.4809 204 36.4375 208.002 36.4375 212.938L36.4375 284.451L24 275.701C22.2083 274.785 17.125 272.451 13.375 272.451C9.96087 272.451 4 275.076 4 279.326C4 283.076 6 284.576 9.125 287.451L17.125 294.326C21.1876 298.201 30.0251 307.076 32.875 311.576C36.8334 317.785 44.0443 328.11 50.625 332.701C55.125 335.841 59.75 337.845 71.875 337.846C81.1875 337.846 89.4429 336.46 95.375 332.701C99.4727 330.105 105.105 324.129 107 318.221C108.895 312.312 108.625 298.158 108.625 298.158" stroke="black" stroke-width="2" stroke-linecap="round" stroke-linejoin="round"/>
<path d="M182.863 69.7801L182.863 126.169C182.863 131.105 186.907 135.106 191.895 135.106C196.882 135.106 200.926 131.105 200.926 126.169L200.926 54.6551L213.363 63.405C215.155 64.3217 220.238 66.6551 223.988 66.6551C227.402 66.6551 233.363 64.03 233.363 59.7801C233.363 56.03 231.363 54.53 228.238 51.655L220.238 44.7801C216.176 40.9051 207.338 32.0301 204.488 27.5301C200.53 21.3218 193.319 10.9965 186.738 6.40508C182.238 3.26547 177.613 1.2611 165.488 1.26074C156.176 1.26074 147.92 2.64677 141.988 6.40508C137.891 9.00116 132.258 14.9771 130.363 20.8857C128.468 26.7943 128.738 40.9482 128.738 40.9482" stroke="black" stroke-width="2" stroke-linecap="round" stroke-linejoin="round"/>
<path d="M54.5 243.832C54.5 238.896 58.5434 234.895 63.5312 234.895C68.5191 234.895 72.5625 238.896 72.5625 243.832L72.5625 270.971" stroke="black" stroke-width="2" stroke-linecap="round" stroke-linejoin="round"/>
<path d="M182.863 95.2744C182.863 100.21 178.82 104.212 173.832 104.212C168.844 104.212 164.801 100.21 164.801 95.2744L164.801 68.1357" stroke="black" stroke-width="2" stroke-linecap="round" stroke-linejoin="round"/>
<path d="M72.5625 250.832C72.5625 245.896 76.6059 241.895 81.5937 241.895C86.5816 241.895 90.625 245.896 90.625 250.832L90.625 272.471" stroke="black" stroke-width="2" stroke-linecap="round" stroke-linejoin="round"/>
<path d="M164.801 88.2744C164.801 93.2105 160.757 97.2119 155.77 97.2119C150.782 97.2119 146.738 93.2105 146.738 88.2744L146.738 66.6357" stroke="black" stroke-width="2" stroke-linecap="round" stroke-linejoin="round"/>
<path d="M90.625 260.332C90.625 255.396 94.6684 251.395 99.6562 251.395C104.644 251.395 108.687 255.396 108.687 260.332L108.687 295.283" stroke="black" stroke-width="2" stroke-linecap="round" stroke-linejoin="round"/>
<path d="M146.738 78.7744C146.738 83.7105 142.695 87.7119 137.707 87.7119C132.719 87.7119 128.676 83.7105 128.676 78.7744L128.676 43.8232" stroke="black" stroke-width="2" stroke-linecap="round" stroke-linejoin="round"/>
<path d="M413.487 222.187L357.099 222.187C352.163 222.187 348.161 226.231 348.161 231.219C348.161 236.207 352.163 240.25 357.099 240.25L428.612 240.25L419.863 252.687C418.946 254.479 416.612 259.562 416.612 263.312C416.612 266.727 419.238 272.687 423.487 272.687C427.238 272.687 428.738 270.687 431.613 267.562L438.487 259.562C442.362 255.5 451.237 246.662 455.737 243.812C461.946 239.854 472.271 232.643 476.862 226.062C480.002 221.562 482.006 216.937 482.007 204.812C482.007 195.5 480.621 187.245 476.863 181.312C474.266 177.215 468.29 171.583 462.382 169.687C456.473 167.792 442.319 168.062 442.319 168.062" stroke="black" stroke-width="2" stroke-linecap="round" stroke-linejoin="round"/>
<path d="M387.993 222.187C383.057 222.187 379.056 218.144 379.056 213.156C379.056 208.168 383.057 204.125 387.993 204.125L415.132 204.125" stroke="black" stroke-width="2" stroke-linecap="round" stroke-linejoin="round"/>
<path d="M394.993 204.125C390.057 204.125 386.056 200.082 386.056 195.094C386.056 190.106 390.057 186.063 394.993 186.063L416.632 186.063" stroke="black" stroke-width="2" stroke-linecap="round" stroke-linejoin="round"/>
<path d="M404.493 186.062C399.557 186.062 395.556 182.019 395.556 177.031C395.556 172.043 399.557 168 404.493 168L439.444 168" stroke="black" stroke-width="2" stroke-linecap="round" stroke-linejoin="round"/>
<rect x="13.5" y="104.5" width="40.5" height="19" rx="2.5" stroke="black"/>
<path d="M20.6136 114.909V114L27.9318 110.273V111.727L22.3182 114.432L22.3636 114.341V114.568L22.3182 114.477L27.9318 117.182V118.636L20.6136 114.909ZM34.8878 106.818L31.1378 120.75H29.9105L33.6605 106.818H34.8878ZM44.1818 114.909L36.8636 118.636V117.182L42.4773 114.477L42.4318 114.568V114.341L42.4773 114.432L36.8636 111.727V110.273L44.1818 114V114.909Z" fill="black"/>
<line x1="13" y1="132.5" x2="87" y2="132.5" stroke="black"/>
<line x1="13" y1="140.5" x2="44" y2="140.5" stroke="black"/>
<line x1="13" y1="147.5" x2="29" y2="147.5" stroke="black"/>
<line x1="13" y1="154.5" x2="58" y2="154.5" stroke="black"/>
<line x1="13" y1="161.5" x2="70" y2="161.5" stroke="black"/>
<line x1="13" y1="168.5" x2="44" y2="168.5" stroke="black"/>
<line x1="13" y1="175.5" x2="78" y2="175.5" stroke="black"/>
<line x1="13" y1="182.5" x2="55" y2="182.5" stroke="black"/>
<line x1="13" y1="189.5" x2="55" y2="189.5" stroke="black"/>
<line x1="13" y1="196.5" x2="70" y2="196.5" stroke="black"/>
<line x1="13" y1="203.5" x2="70" y2="203.5" stroke="black"/>
<line x1="13" y1="210.5" x2="64" y2="210.5" stroke="black"/>
<line x1="13" y1="217.5" x2="81" y2="217.5" stroke="black"/>
<line x1="13" y1="224.5" x2="65" y2="224.5" stroke="black"/>
<line x1="34" y1="147.5" x2="44" y2="147.5" stroke="black"/>
<line x1="50" y1="147.5" x2="61" y2="147.5" stroke="black"/>
<line x1="62" y1="154.5" x2="75" y2="154.5" stroke="black"/>
<line x1="60" y1="182.5" x2="74" y2="182.5" stroke="black"/>
<rect x="237.5" y="154.5" width="69" height="45" rx="2.5" stroke="black"/>
<circle cx="251" cy="168" r="4.5" stroke="black"/>
<path d="M264 177.5L237.5 197C237.5 198.6 239.104 199.49 239.937 199.49H297.88L275.5 178C274.5 177 272 175 269.5 175C267 175 265.5 176.5 264 177.5Z" stroke="black"/>
<path d="M280.5 182.5L306.5 161.5V197C306.5 199 304.5 199.5 303 199.5H298L280.5 182.5Z" stroke="black"/>
<line x1="237" y1="206.5" x2="284" y2="206.5" stroke="black"/>
<line x1="162" y1="160.5" x2="209" y2="160.5" stroke="black"/>
<line x1="162" y1="151.5" x2="209" y2="151.5" stroke="black" stroke-width="3"/>
<line x1="162" y1="167.5" x2="209" y2="167.5" stroke="black"/>
<line x1="162" y1="174.5" x2="179" y2="174.5" stroke="black"/>
<line x1="162" y1="181.5" x2="217" y2="181.5" stroke="black"/>
<line x1="162" y1="188.5" x2="208" y2="188.5" stroke="black"/>
<line x1="162" y1="195.5" x2="194" y2="195.5" stroke="black"/>
<line x1="184" y1="174.5" x2="201" y2="174.5" stroke="black"/>
<line x1="126.059" y1="162.5" x2="143.632" y2="162.5" stroke="black"/>
<line x1="130.349" y1="169.185" x2="143.632" y2="169.185" stroke="black" stroke-width="3"/>
<line x1="130.62" y1="174.5" x2="143.632" y2="174.5" stroke="black"/>
</svg>
