<svg width="547" height="374" viewBox="0 0 547 374" fill="none" xmlns="http://www.w3.org/2000/svg">
<g opacity="0.8">
<path d="M437.627 306.525L357.431 290.408L357.431 116.912L448.103 124.064L437.627 306.525Z" fill="#3969A7"/>
<rect x="367.592" y="135.735" width="40.5" height="19" rx="2.5" stroke="black"/>
<path d="M374.705 146.144V145.235L382.024 141.508V142.963L376.41 145.667L376.455 145.576V145.804L376.41 145.713L382.024 148.417V149.872L374.705 146.144ZM388.98 138.054L385.23 151.985H384.002L387.752 138.054H388.98ZM398.274 146.144L390.955 149.872V148.417L396.569 145.713L396.524 145.804V145.576L396.569 145.667L390.955 142.963V141.508L398.274 145.235V146.144Z" fill="black"/>
<line x1="367.092" y1="163.735" x2="441.092" y2="163.735" stroke="black"/>
<line x1="367.092" y1="171.735" x2="398.092" y2="171.735" stroke="black"/>
<line x1="367.092" y1="178.735" x2="383.092" y2="178.735" stroke="black"/>
<line x1="367.092" y1="185.735" x2="412.092" y2="185.735" stroke="black"/>
<line x1="367.092" y1="192.735" x2="424.092" y2="192.735" stroke="black"/>
<line x1="367.092" y1="199.735" x2="398.092" y2="199.735" stroke="black"/>
<line x1="367.092" y1="206.735" x2="432.092" y2="206.735" stroke="black"/>
<line x1="367.092" y1="213.735" x2="409.092" y2="213.735" stroke="black"/>
<line x1="367.092" y1="220.735" x2="409.092" y2="220.735" stroke="black"/>
<line x1="367.092" y1="227.735" x2="424.092" y2="227.735" stroke="black"/>
<line x1="367.092" y1="234.735" x2="424.092" y2="234.735" stroke="black"/>
<line x1="367.092" y1="241.735" x2="418.092" y2="241.735" stroke="black"/>
<line x1="367.092" y1="248.735" x2="435.092" y2="248.735" stroke="black"/>
<line x1="367.092" y1="255.735" x2="419.092" y2="255.735" stroke="black"/>
<line x1="388.092" y1="178.735" x2="398.092" y2="178.735" stroke="black"/>
<line x1="404.092" y1="178.735" x2="415.092" y2="178.735" stroke="black"/>
<line x1="416.092" y1="185.735" x2="429.092" y2="185.735" stroke="black"/>
<line x1="414.092" y1="213.735" x2="428.092" y2="213.735" stroke="black"/>
<path d="M1.70898 232.809H35.2677" stroke="#78B0BF" stroke-width="2.18358" stroke-linecap="round" stroke-dasharray="0.01 3.28"/>
<path d="M18.4883 212.616L18.4883 253" stroke="#78B0BF" stroke-width="2.18358" stroke-linecap="round" stroke-dasharray="0.01 3.28"/>
<path d="M30.4336 220.295L6.54431 245.322" stroke="#78B0BF" stroke-width="1.63768" stroke-linecap="round" stroke-dasharray="0.01 3.28"/>
<path d="M30.1484 245.606L6.82795 220.011" stroke="#78B0BF" stroke-width="1.63768" stroke-linecap="round" stroke-dasharray="0.01 3.28"/>
<path d="M128.744 75.0342H162.303" stroke="#78B0BF" stroke-width="2.18358" stroke-linecap="round" stroke-dasharray="0.01 3.28"/>
<path d="M145.523 54.8418L145.523 95.2261" stroke="#78B0BF" stroke-width="2.18358" stroke-linecap="round" stroke-dasharray="0.01 3.28"/>
<path d="M157.469 62.5205L133.579 87.5474" stroke="#78B0BF" stroke-width="1.63768" stroke-linecap="round" stroke-dasharray="0.01 3.28"/>
<path d="M157.184 87.832L133.863 62.2364" stroke="#78B0BF" stroke-width="1.63768" stroke-linecap="round" stroke-dasharray="0.01 3.28"/>
<path d="M481.43 166.044H514.988" stroke="#78B0BF" stroke-width="2.18358" stroke-linecap="round" stroke-dasharray="0.01 3.28"/>
<path d="M498.209 145.852L498.209 186.236" stroke="#78B0BF" stroke-width="2.18358" stroke-linecap="round" stroke-dasharray="0.01 3.28"/>
<path d="M510.154 153.53L486.265 178.557" stroke="#78B0BF" stroke-width="1.63768" stroke-linecap="round" stroke-dasharray="0.01 3.28"/>
<path d="M509.869 178.842L486.549 153.246" stroke="#78B0BF" stroke-width="1.63768" stroke-linecap="round" stroke-dasharray="0.01 3.28"/>
<path d="M173.693 299.792H229.582" stroke="#2B2C59" stroke-width="2.18358" stroke-linecap="round" stroke-dasharray="0.01 3.28"/>
<path d="M201.637 263.901L201.637 335.68" stroke="#2B2C59" stroke-width="2.18358" stroke-linecap="round" stroke-dasharray="0.01 3.28"/>
<path d="M221.531 277.551L181.746 322.033" stroke="#2B2C59" stroke-width="1.63768" stroke-linecap="round" stroke-dasharray="0.01 3.28"/>
<path d="M221.058 322.538L182.22 277.045" stroke="#2B2C59" stroke-width="1.63768" stroke-linecap="round" stroke-dasharray="0.01 3.28"/>
</g>
<path d="M350.977 141.671L340.674 229.855L174.304 229.855L170.366 141.671L350.977 141.671Z" fill="#78B0BF"/>
<rect x="189.695" y="160.062" width="64.6475" height="55.877" rx="3.5" stroke="black"/>
<rect x="268.605" y="160.062" width="64.6475" height="55.877" rx="3.5" stroke="black"/>
<path opacity="0.8" d="M64.0234 120.857L164.023 113.731V295.186L64.0234 284.53V120.857Z" fill="#FC4665"/>
<path d="M389.237 170.106L385.298 249.856L212.565 249.856L207.562 170.106L389.237 170.106Z" fill="#FAEA65"/>
<path d="M118.43 304.326L118.43 247.938C118.43 243.002 114.386 239 109.398 239C104.411 239 100.367 243.002 100.367 247.938L100.367 319.451L87.9297 310.701C86.138 309.785 81.0547 307.451 77.3047 307.451C73.8906 307.451 67.9297 310.076 67.9297 314.326C67.9297 318.076 69.9297 319.576 73.0547 322.451L81.0547 329.326C85.1173 333.201 93.9548 342.076 96.8047 346.576C100.763 352.785 107.974 363.11 114.555 367.701C119.055 370.841 123.68 372.845 135.805 372.846C145.117 372.846 153.373 371.46 159.305 367.701C163.402 365.105 169.034 359.129 170.93 353.221C172.825 347.312 172.555 333.158 172.555 333.158" stroke="black" stroke-width="2" stroke-linecap="round" stroke-linejoin="round"/>
<path d="M246.793 104.78L246.793 161.169C246.793 166.105 250.836 170.106 255.824 170.106C260.812 170.106 264.855 166.105 264.855 161.169L264.855 89.6551L277.293 98.405C279.085 99.3217 284.168 101.655 287.918 101.655C291.332 101.655 297.293 99.03 297.293 94.7801C297.293 91.03 295.293 89.53 292.168 86.655L284.168 79.7801C280.105 75.9051 271.268 67.0301 268.418 62.5301C264.46 56.3218 257.249 45.9965 250.668 41.4051C246.168 38.2655 241.543 36.2611 229.418 36.2607C220.105 36.2607 211.85 37.6468 205.918 41.4051C201.82 44.0012 196.188 49.9771 194.293 55.8857C192.398 61.7943 192.668 75.9482 192.668 75.9482" stroke="black" stroke-width="2" stroke-linecap="round" stroke-linejoin="round"/>
<path d="M118.43 278.832C118.43 273.896 122.473 269.895 127.461 269.895C132.449 269.895 136.492 273.896 136.492 278.832L136.492 305.971" stroke="black" stroke-width="2" stroke-linecap="round" stroke-linejoin="round"/>
<path d="M246.793 130.274C246.793 135.21 242.75 139.212 237.762 139.212C232.774 139.212 228.73 135.21 228.73 130.274L228.73 103.136" stroke="black" stroke-width="2" stroke-linecap="round" stroke-linejoin="round"/>
<path d="M136.492 285.832C136.492 280.896 140.536 276.895 145.523 276.895C150.511 276.895 154.555 280.896 154.555 285.832L154.555 307.471" stroke="black" stroke-width="2" stroke-linecap="round" stroke-linejoin="round"/>
<path d="M228.73 123.274C228.73 128.21 224.687 132.212 219.699 132.212C214.711 132.212 210.668 128.21 210.668 123.274L210.668 101.636" stroke="black" stroke-width="2" stroke-linecap="round" stroke-linejoin="round"/>
<path d="M154.555 295.332C154.555 290.396 158.598 286.395 163.586 286.395C168.574 286.395 172.617 290.396 172.617 295.332L172.617 330.283" stroke="black" stroke-width="2" stroke-linecap="round" stroke-linejoin="round"/>
<path d="M210.668 113.774C210.668 118.71 206.625 122.712 201.637 122.712C196.649 122.712 192.605 118.71 192.605 113.774L192.605 78.8232" stroke="black" stroke-width="2" stroke-linecap="round" stroke-linejoin="round"/>
<path d="M477.417 257.187L421.029 257.187C416.092 257.187 412.091 261.231 412.091 266.219C412.091 271.207 416.092 275.25 421.029 275.25L492.542 275.25L483.792 287.687C482.876 289.479 480.542 294.562 480.542 298.312C480.542 301.727 483.167 307.687 487.417 307.687C491.167 307.687 492.667 305.687 495.542 302.562L502.417 294.562C506.292 290.5 515.167 281.662 519.667 278.812C525.876 274.854 536.201 267.643 540.792 261.062C543.932 256.562 545.936 251.937 545.937 239.812C545.937 230.5 544.55 222.245 540.792 216.312C538.196 212.215 532.22 206.583 526.312 204.687C520.403 202.792 506.249 203.062 506.249 203.062" stroke="black" stroke-width="2" stroke-linecap="round" stroke-linejoin="round"/>
<path d="M451.923 257.187C446.987 257.187 442.985 253.144 442.985 248.156C442.985 243.168 446.987 239.125 451.923 239.125L479.062 239.125" stroke="black" stroke-width="2" stroke-linecap="round" stroke-linejoin="round"/>
<path d="M458.923 239.125C453.987 239.125 449.985 235.082 449.985 230.094C449.985 225.106 453.987 221.063 458.923 221.063L480.562 221.063" stroke="black" stroke-width="2" stroke-linecap="round" stroke-linejoin="round"/>
<path d="M468.423 221.062C463.487 221.062 459.485 217.019 459.485 212.031C459.485 207.043 463.487 203 468.423 203L503.374 203" stroke="black" stroke-width="2" stroke-linecap="round" stroke-linejoin="round"/>
<rect x="77.4297" y="139.5" width="40.5" height="19" rx="2.5" stroke="black"/>
<path d="M84.5433 149.909V149L91.8615 145.273V146.727L86.2479 149.432L86.2933 149.341V149.568L86.2479 149.477L91.8615 152.182V153.636L84.5433 149.909ZM98.8175 141.818L95.0675 155.75H93.8402L97.5902 141.818H98.8175ZM108.112 149.909L100.793 153.636V152.182L106.407 149.477L106.362 149.568V149.341L106.407 149.432L100.793 146.727V145.273L108.112 149V149.909Z" fill="black"/>
<line x1="76.9297" y1="167.5" x2="150.93" y2="167.5" stroke="black"/>
<line x1="76.9297" y1="175.5" x2="107.93" y2="175.5" stroke="black"/>
<line x1="76.9297" y1="182.5" x2="92.9297" y2="182.5" stroke="black"/>
<line x1="76.9297" y1="189.5" x2="121.93" y2="189.5" stroke="black"/>
<line x1="76.9297" y1="196.5" x2="133.93" y2="196.5" stroke="black"/>
<line x1="76.9297" y1="203.5" x2="107.93" y2="203.5" stroke="black"/>
<line x1="76.9297" y1="210.5" x2="141.93" y2="210.5" stroke="black"/>
<line x1="76.9297" y1="217.5" x2="118.93" y2="217.5" stroke="black"/>
<line x1="76.9297" y1="224.5" x2="118.93" y2="224.5" stroke="black"/>
<line x1="76.9297" y1="231.5" x2="133.93" y2="231.5" stroke="black"/>
<line x1="76.9297" y1="238.5" x2="133.93" y2="238.5" stroke="black"/>
<line x1="76.9297" y1="245.5" x2="127.93" y2="245.5" stroke="black"/>
<line x1="76.9297" y1="252.5" x2="144.93" y2="252.5" stroke="black"/>
<line x1="76.9297" y1="259.5" x2="128.93" y2="259.5" stroke="black"/>
<line x1="97.9297" y1="182.5" x2="107.93" y2="182.5" stroke="black"/>
<line x1="113.93" y1="182.5" x2="124.93" y2="182.5" stroke="black"/>
<line x1="125.93" y1="189.5" x2="138.93" y2="189.5" stroke="black"/>
<line x1="123.93" y1="217.5" x2="137.93" y2="217.5" stroke="black"/>
<rect x="301.43" y="189.493" width="69" height="45" rx="2.5" stroke="black"/>
<circle cx="314.93" cy="202.993" r="4.5" stroke="black"/>
<path d="M327.93 212.493L301.43 231.993C301.43 233.593 303.034 234.483 303.867 234.483H361.81L339.43 212.993C338.43 211.993 335.93 209.993 333.43 209.993C330.93 209.993 329.43 211.493 327.93 212.493Z" stroke="black"/>
<path d="M344.43 217.493L370.43 196.493V231.993C370.43 233.993 368.43 234.493 366.93 234.493H361.93L344.43 217.493Z" stroke="black"/>
<line x1="300.93" y1="241.493" x2="347.93" y2="241.493" stroke="black"/>
<line x1="225.93" y1="195.493" x2="272.93" y2="195.493" stroke="black"/>
<line x1="225.93" y1="186.493" x2="272.93" y2="186.493" stroke="black" stroke-width="3"/>
<line x1="225.93" y1="202.493" x2="272.93" y2="202.493" stroke="black"/>
<line x1="225.93" y1="209.493" x2="242.93" y2="209.493" stroke="black"/>
<line x1="225.93" y1="216.493" x2="280.93" y2="216.493" stroke="black"/>
<line x1="225.93" y1="223.493" x2="271.93" y2="223.493" stroke="black"/>
<line x1="225.93" y1="230.493" x2="257.93" y2="230.493" stroke="black"/>
<line x1="247.93" y1="209.493" x2="264.93" y2="209.493" stroke="black"/>
<path d="M291.901 31.9505C291.901 35.5763 291.23 51.5904 290.894 59.1441C290.088 54.6324 289.887 38.8664 289.887 31.5474C286.386 34.8223 281.982 38.3506 280.218 39.7055C282.071 37.4494 286.362 32.6554 288.275 30.5404C281.625 30.5404 278.243 30.1353 271.758 29.5332C278.243 28.7261 284.515 28.4587 288.779 28.4251C285.153 25.6047 281.561 20.7372 280.218 18.656C282.071 19.8649 287.436 24.6655 289.887 26.9147C289.887 21.9194 290.558 6.90582 290.894 0.0234375C290.894 0.990315 291.565 18.3538 291.901 26.9147C293.311 25.7239 298.683 20.9055 301.771 18.656C299.142 22.2527 296.131 25.5716 293.311 28.4251C296.695 28.2639 305.8 29.0967 309.929 29.5332C302.279 30.2966 298.574 30.2632 293.311 30.5404C295.245 32.313 299.757 37.7249 301.771 40.2092L291.901 31.9505Z" fill="#FC4665"/>
<path d="M338.575 314.403C338.575 320.138 337.513 345.469 336.982 357.417C335.708 350.281 335.389 325.342 335.389 313.765C329.852 318.945 322.886 324.527 320.095 326.67C323.026 323.101 329.813 315.518 332.84 312.172C322.321 312.172 316.971 311.532 306.713 310.579C316.971 309.303 326.892 308.88 333.636 308.826C327.901 304.365 322.219 296.666 320.095 293.374C323.026 295.286 331.512 302.88 335.389 306.437C335.389 298.536 336.451 274.788 336.982 263.901C336.982 265.431 338.044 292.896 338.575 306.437C340.806 304.554 349.302 296.932 354.188 293.374C350.028 299.063 345.266 304.313 340.806 308.826C346.159 308.572 360.56 309.889 367.092 310.579C354.991 311.787 349.131 311.734 340.806 312.172C343.864 314.976 351.002 323.537 354.188 327.466L338.575 314.403Z" fill="#FFBE02"/>
<line x1="189.988" y1="197.5" x2="207.562" y2="197.5" stroke="black"/>
<line x1="194.278" y1="204.185" x2="207.562" y2="204.185" stroke="black" stroke-width="3"/>
<line x1="194.55" y1="209.5" x2="207.562" y2="209.5" stroke="black"/>
<path d="M305.53 71.75H367.091" stroke="#FFBE02" stroke-width="4" stroke-linecap="round" stroke-dasharray="0.01 6"/>
<path d="M336.311 34.709L336.311 108.79" stroke="#FFBE02" stroke-width="4" stroke-linecap="round" stroke-dasharray="0.01 6"/>
<path d="M358.222 48.7959L314.399 94.7055" stroke="#FFBE02" stroke-width="3" stroke-linecap="round" stroke-dasharray="0.01 6"/>
<path d="M357.7 95.2266L314.921 48.2736" stroke="#FFBE02" stroke-width="3" stroke-linecap="round" stroke-dasharray="0.01 6"/>
</svg>
