<svg width="195" height="181" viewBox="0 0 195 181" fill="none" xmlns="http://www.w3.org/2000/svg">
<g style="mix-blend-mode:screen">
<path fill-rule="evenodd" clip-rule="evenodd" d="M94.932 75.7567C96.5503 75.4531 98.211 75.4531 99.8293 75.7567C101.745 76.1162 103.455 76.9885 104.281 77.41C104.366 77.4534 104.441 77.492 104.507 77.5248L189.868 120.205C192.867 121.705 194.761 124.77 194.761 128.123C194.761 131.476 192.867 134.542 189.868 136.041L104.507 178.722C104.441 178.755 104.366 178.793 104.281 178.837C103.455 179.258 101.745 180.13 99.8293 180.49C98.211 180.793 96.5503 180.793 94.932 180.49C93.0159 180.13 91.3065 179.258 90.4806 178.837C90.3956 178.793 90.3199 178.755 90.2543 178.722L4.8937 136.041C1.89452 134.542 0 131.476 0 128.123C0 124.77 1.89452 121.705 4.8937 120.205L90.2543 77.5248C90.3199 77.492 90.3956 77.4534 90.4807 77.41C91.3066 76.9885 93.0159 76.1162 94.932 75.7567Z" fill="#0008FF"/>
</g>
<g style="mix-blend-mode:screen">
<path fill-rule="evenodd" clip-rule="evenodd" d="M94.932 36.3503C96.5503 36.0467 98.211 36.0467 99.8293 36.3503C101.745 36.7098 103.455 37.5821 104.281 38.0035C104.366 38.047 104.441 38.0856 104.507 38.1184L189.868 80.7987C192.867 82.2982 194.761 85.3636 194.761 88.7168C194.761 92.07 192.867 95.1354 189.868 96.635L104.507 139.315C104.441 139.348 104.366 139.387 104.281 139.43C103.455 139.852 101.745 140.724 99.8293 141.083C98.211 141.387 96.5503 141.387 94.932 141.083C93.0159 140.724 91.3065 139.852 90.4806 139.43C90.3956 139.387 90.3199 139.348 90.2543 139.315L4.8937 96.635C1.89452 95.1354 0 92.07 0 88.7168C0 85.3636 1.89452 82.2982 4.8937 80.7987L90.2543 38.1184C90.3199 38.0856 90.3956 38.0469 90.4807 38.0035C91.3066 37.5821 93.0159 36.7098 94.932 36.3503Z" fill="#00FF7C"/>
</g>
<g style="mix-blend-mode:screen">
<path fill-rule="evenodd" clip-rule="evenodd" d="M94.932 0.227715C96.5503 -0.075905 98.211 -0.075905 99.8293 0.227715C101.745 0.587206 103.455 1.45949 104.281 1.88096C104.366 1.92436 104.441 1.96299 104.507 1.99578L189.868 44.6761C192.867 46.1757 194.761 49.241 194.761 52.5942C194.761 55.9474 192.867 59.0128 189.868 60.5124L104.507 103.193C104.441 103.225 104.366 103.264 104.281 103.308C103.455 103.729 101.745 104.601 99.8293 104.961C98.211 105.264 96.5503 105.264 94.932 104.961C93.0159 104.601 91.3065 103.729 90.4806 103.308C90.3956 103.264 90.3199 103.225 90.2543 103.193L4.8937 60.5124C1.89452 59.0128 0 55.9474 0 52.5942C0 49.241 1.89452 46.1757 4.8937 44.6761L90.2543 1.99578C90.3199 1.96299 90.3956 1.92436 90.4807 1.88094C91.3066 1.45947 93.0159 0.587202 94.932 0.227715Z" fill="#FF000A"/>
</g>
</svg>
