<svg width="197" height="187" viewBox="0 0 197 187" fill="none" xmlns="http://www.w3.org/2000/svg">
<path d="M28.7863 113.869L4.94933 125.787C1.91605 127.304 0 130.404 0 133.796C0 137.187 1.91605 140.287 4.94933 141.804L91.2803 184.969C91.3461 185.002 91.422 185.041 91.5073 185.084L91.5092 185.085C92.3444 185.512 94.0732 186.394 96.0111 186.757C97.6478 187.064 99.3274 187.064 100.964 186.757C102.902 186.394 104.631 185.512 105.466 185.085C105.552 185.041 105.629 185.002 105.695 184.969L192.026 141.804C195.059 140.287 196.975 137.187 196.975 133.796C196.975 130.404 195.059 127.304 192.026 125.787L168.189 113.869L105.695 145.116C105.629 145.149 105.553 145.188 105.468 145.231L105.466 145.232C104.631 145.658 102.902 146.541 100.964 146.904C99.3274 147.211 97.6478 147.211 96.0111 146.904C94.0732 146.541 92.3444 145.658 91.5092 145.232L91.5073 145.231C91.422 145.188 91.3461 145.149 91.2803 145.116L28.7863 113.869Z" fill="#0008FF"/>
<path d="M69.3922 93.7961L29.2466 113.869L91.7406 145.116C91.8064 145.149 91.8823 145.188 91.9676 145.231L91.9695 145.232C92.8048 145.658 94.5335 146.54 96.4714 146.904C98.1082 147.211 99.7877 147.211 101.424 146.904C103.362 146.54 105.091 145.658 105.926 145.232L105.928 145.231C106.013 145.188 106.089 145.149 106.155 145.116L168.649 113.869L128.504 93.7961L106.155 104.97C106.089 105.003 106.012 105.043 105.926 105.086C105.091 105.513 103.362 106.395 101.424 106.758C99.7877 107.066 98.1082 107.066 96.4714 106.758C94.5335 106.395 92.8048 105.513 91.9695 105.086L91.967 105.085C91.882 105.042 91.8062 105.003 91.7406 104.97L69.3922 93.7961Z" fill="#00FFFF"/>
<path d="M4.94933 85.9341L29.0786 73.8695L68.9319 93.7961L28.7863 113.869L4.94933 101.95C1.91605 100.434 0 97.3336 0 93.9423C0 90.551 1.91605 87.4507 4.94933 85.9341Z" fill="#00FF7C"/>
<path d="M168.189 113.869L192.026 101.95C195.059 100.434 196.975 97.3336 196.975 93.9423C196.975 90.551 195.059 87.4507 192.026 85.9341L167.897 73.8695L128.043 93.7961L168.189 113.869Z" fill="#00FF7C"/>
<path d="M129.303 93.7961L106.955 104.97C106.889 105.003 106.813 105.042 106.727 105.086C105.892 105.512 104.162 106.395 102.224 106.758C100.587 107.066 98.9076 107.066 97.2709 106.758C95.333 106.395 93.6042 105.513 92.7689 105.086C92.6829 105.043 92.6064 105.003 92.54 104.97L70.1917 93.7961L92.54 82.622C92.6058 82.5891 92.6817 82.5504 92.7668 82.5069L92.769 82.5058C93.6043 82.0795 95.333 81.1974 97.2709 80.8338C98.9076 80.5267 100.587 80.5267 102.224 80.8338C104.162 81.1974 105.891 82.0796 106.726 82.5058C106.811 82.5495 106.889 82.5889 106.955 82.622L129.303 93.7961Z" fill="white"/>
<path d="M128.211 93.7961L168.065 73.8695L105.863 42.7686C105.797 42.7355 105.72 42.6964 105.634 42.6525C104.799 42.2262 103.07 41.344 101.132 40.9805C99.4954 40.6734 97.8158 40.6734 96.1791 40.9805C94.2413 41.344 92.5124 42.2263 91.6771 42.6525C91.5911 42.6964 91.5146 42.7355 91.4483 42.7686L29.2466 73.8695L69.0999 93.7961L91.4483 82.6219C91.5145 82.5888 91.591 82.5498 91.6768 82.5059C92.5121 82.0797 94.2413 81.1973 96.1792 80.8337C97.8159 80.5267 99.4954 80.5267 101.132 80.8337C103.07 81.1973 104.799 82.0795 105.634 82.5058C105.719 82.5493 105.797 82.5889 105.863 82.6219L128.211 93.7961Z" fill="#FFFF81"/>
<path d="M100.964 0.834857C99.3274 0.527785 97.6478 0.527785 96.0111 0.834857C94.0733 1.19843 92.3445 2.08061 91.5092 2.50688L91.5071 2.50793C91.4219 2.55141 91.3461 2.59012 91.2803 2.62302L4.94933 45.7885C1.91605 47.3051 0 50.4054 0 53.7967C0 57.188 1.91605 60.2882 4.94933 61.8048L29.0786 73.8695L91.2803 42.7686C91.3461 42.7357 91.4221 42.6969 91.5075 42.6534L91.5092 42.6525C92.3445 42.2262 94.0733 41.344 96.0111 40.9805C97.6478 40.6734 99.3274 40.6734 100.964 40.9805C102.902 41.344 104.631 42.2262 105.466 42.6525C105.551 42.696 105.629 42.7357 105.695 42.7686L167.897 73.8695L192.026 61.8048C195.059 60.2882 196.975 57.188 196.975 53.7967C196.975 50.4054 195.059 47.3051 192.026 45.7885L105.695 2.62302C105.629 2.58998 105.553 2.55109 105.467 2.50739C104.632 2.08113 102.902 1.19843 100.964 0.834857Z" fill="#FF000A"/>
</svg>
