<svg width="543" height="135" viewBox="0 0 543 135" fill="none" xmlns="http://www.w3.org/2000/svg">
<g class="c-logo__shape">
<path fill-rule="evenodd" clip-rule="evenodd" d="M67.6561 56.5494C68.8095 56.3349 69.993 56.3349 71.1464 56.5494C72.5119 56.8032 73.7301 57.4192 74.3187 57.7168C74.3794 57.7475 74.4333 57.7748 74.4801 57.7979L135.315 87.9375C137.452 88.9964 138.802 91.1611 138.802 93.5291C138.802 95.897 137.452 98.0617 135.315 99.1206L74.4801 129.26C74.4333 129.283 74.3794 129.311 74.3187 129.341C73.7301 129.639 72.5119 130.255 71.1464 130.509C69.993 130.723 68.8095 130.723 67.6561 130.509C66.2906 130.255 65.0723 129.639 64.4838 129.341C64.4231 129.311 64.3692 129.283 64.3224 129.26L3.48764 99.1206C1.35018 98.0617 0 95.897 0 93.5291C0 91.1611 1.35018 88.9964 3.48764 87.9375L64.3224 57.7979C64.3692 57.7748 64.4231 57.7475 64.4838 57.7168C65.0724 57.4192 66.2906 56.8032 67.6561 56.5494Z" fill="#0008FF"/>
</g>
<g class="c-logo__shape">
<path fill-rule="evenodd" clip-rule="evenodd" d="M67.6561 27.8153C68.8095 27.5977 69.993 27.5977 71.1464 27.8153C72.5119 28.0728 73.7301 28.6978 74.3187 28.9998C74.3794 29.0309 74.4333 29.0585 74.4801 29.082L135.315 59.6616C137.452 60.736 138.802 62.9323 138.802 65.3348C138.802 67.7373 137.452 69.9336 135.315 71.008L74.4801 101.588C74.4333 101.611 74.3794 101.639 74.3187 101.67C73.7301 101.972 72.5119 102.597 71.1464 102.854C69.993 103.072 68.8095 103.072 67.6561 102.854C66.2906 102.597 65.0723 101.972 64.4837 101.67C64.4231 101.639 64.3692 101.611 64.3224 101.588L3.48764 71.008C1.35018 69.9336 0 67.7373 0 65.3348C0 62.9323 1.35018 60.736 3.48764 59.6616L64.3224 29.082C64.3692 29.0585 64.4231 29.0309 64.4838 28.9998C65.0724 28.6978 66.2906 28.0728 67.6561 27.8153Z" fill="#00FF7C"/>
</g>
<g class="c-logo__shape">
<path fill-rule="evenodd" clip-rule="evenodd" d="M67.6561 0.163214C68.8095 -0.0543234 69.993 -0.0543234 71.1464 0.163214C72.5119 0.420782 73.7301 1.04576 74.3187 1.34773C74.3794 1.37883 74.4333 1.4065 74.4801 1.43L135.315 32.0096C137.452 33.084 138.802 35.2803 138.802 37.6828C138.802 40.0853 137.452 42.2816 135.315 43.356L74.4801 73.9355C74.4333 73.959 74.3794 73.9867 74.3187 74.0178C73.7301 74.3198 72.5119 74.9448 71.1464 75.2023C69.993 75.4199 68.8095 75.4199 67.6561 75.2023C66.2906 74.9448 65.0723 74.3198 64.4838 74.0178C64.4231 73.9867 64.3692 73.959 64.3224 73.9355L3.48764 43.356C1.35018 42.2816 0 40.0853 0 37.6828C0 35.2803 1.35018 33.084 3.48764 32.0096L64.3224 1.43C64.3692 1.4065 64.4231 1.37882 64.4838 1.34772C65.0724 1.04574 66.2906 0.420779 67.6561 0.163214Z" fill="#FF000A"/>
</g>
<path fill-rule="evenodd" clip-rule="evenodd" d="M185.022 123.774H170.314V86.6313H184.902C197.218 86.6313 203.137 93.7503 203.137 104.893C203.137 115.974 196.501 123.774 185.022 123.774ZM196.381 104.893C196.381 96.7836 192.555 92.5741 184.005 92.5741H177.13V117.831H184.364C192.794 117.831 196.381 112.94 196.381 104.893Z" fill="black"/>
<path fill-rule="evenodd" clip-rule="evenodd" d="M218.9 124.517C226.313 124.517 230.14 120.679 231.575 115.107L225.955 113.436C225.118 116.407 223.444 118.698 218.96 118.698C214.356 118.698 211.606 116.283 211.008 111.393H231.634C231.754 109.845 231.754 108.669 231.754 107.493C231.754 99.5073 227.449 93.936 218.9 93.936C210.171 93.936 204.551 99.7549 204.551 109.598C204.551 119.193 210.291 124.517 218.9 124.517ZM218.721 99.5692C223.145 99.5692 225.417 101.922 225.775 106.441H211.068C211.785 101.736 214.476 99.5692 218.721 99.5692Z" fill="black"/>
<path d="M257.61 115.602C257.61 121.05 253.963 124.578 246.011 124.578C236.983 124.578 233.934 120.245 232.918 114.55L238.956 113.312C239.853 116.964 241.647 119.44 246.131 119.44C249.538 119.44 251.212 118.079 251.272 115.788C251.272 113.683 249.837 112.569 244.217 111.517C236.625 109.969 233.934 107.245 233.934 102.603C233.934 97.3407 237.641 93.936 244.995 93.936C252.647 93.936 255.816 97.3407 257.012 102.912L250.854 104.336C250.017 100.498 248.343 98.8883 244.995 98.8883C241.946 98.8883 240.331 100.188 240.331 102.293C240.331 104.336 241.467 105.698 247.147 106.688C254.979 108.174 257.61 111.145 257.61 115.602Z" fill="black"/>
<path d="M267.397 90.7789V85.8265H260.402V90.7789H267.397Z" fill="black"/>
<path d="M267.158 123.774V94.6788H260.701V123.774H267.158Z" fill="black"/>
<path fill-rule="evenodd" clip-rule="evenodd" d="M297.791 124.64C297.791 130.088 294.144 133.121 283.503 133.059C272.562 133.121 269.513 130.769 269.513 127.117C269.513 124.64 271.844 122.721 276.209 122.164C273.458 121.793 271.904 120.431 271.904 118.264C271.904 116.779 273.16 115.231 275.431 114.426L277.584 113.436C273.399 112.074 271.127 108.979 271.127 104.645C271.127 98.2692 275.611 94.6788 283.204 94.6788H296.954V100.312H293.307C291.932 100.312 290.557 100.312 288.584 100.188V100.25C292.052 100.931 294.682 102.479 294.682 106.379C294.682 111.517 290.557 114.179 282.905 114.179C281.111 114.179 279.497 113.993 278.062 113.56L277.464 114.55C277.394 114.671 277.326 114.782 277.263 114.887C277 115.319 276.806 115.637 276.806 116.036C276.806 117.15 277.584 117.583 279.258 117.583C280.963 117.583 282.73 117.535 284.464 117.488C286.135 117.442 287.776 117.398 289.302 117.398C295.28 117.398 297.791 120.121 297.791 124.64ZM289.122 105.017C289.122 101.983 287.09 100.188 282.905 100.188C278.6 100.188 276.926 102.107 276.926 105.017C276.926 107.926 278.54 109.783 282.964 109.783C287.389 109.783 289.122 107.988 289.122 105.017ZM274.535 125.074C274.535 127.302 276.209 128.107 283.383 128.107C291.036 128.107 292.65 126.993 292.65 124.64C292.65 123.34 291.873 122.226 289.541 122.226H278.779C275.85 122.226 274.535 123.65 274.535 125.074Z" fill="black"/>
<path d="M306.208 106.564C306.208 102.417 308.719 99.9407 312.844 99.9407C317.208 99.9407 318.703 103.036 318.703 106.564V123.774H325.16V104.831C325.16 98.5169 322.589 93.936 315.833 93.936C311.11 93.936 307.523 96.474 306.267 102.664H306.208V94.6788H299.751V123.774H306.208V106.564Z" fill="black"/>
<path d="M366.926 113.374C366.926 120.059 362.442 124.578 352.578 124.578C341.697 124.517 337.332 118.636 336.495 111.455L343.072 110.093C344.028 115.355 347.496 118.45 352.996 118.45C357.6 118.45 359.991 116.593 359.991 113.621C359.991 110.588 357.899 109.041 351.143 107.988C341.218 106.379 338.05 102.231 338.05 96.5978C338.05 90.036 342.713 85.8265 351.442 85.8265C360.888 85.8265 364.714 91.0884 366.089 97.8978L359.393 99.3216C358.258 94.4312 356.225 91.8312 351.143 91.8312C347.137 91.8312 344.925 93.6884 344.925 96.474C344.925 98.9502 346.24 100.745 354.132 102.107C364.236 103.779 366.926 108.112 366.926 113.374Z" fill="black"/>
<path d="M371.842 134.607C378.299 134.607 381.767 131.388 384.637 124.083L396.175 94.6788H389.24L385.952 105.326C385.337 107.348 384.569 109.664 383.767 112.083L383.767 112.084L383.767 112.085C383.243 113.665 382.705 115.288 382.185 116.902H382.006C381.189 114.442 380.28 111.814 379.436 109.375L379.432 109.363C378.919 107.879 378.43 106.466 378 105.202L374.353 94.6788H367.299L378.658 123.278C376.864 127.674 375.25 128.417 372.022 128.417C370.826 128.417 369.69 128.231 368.435 127.983L367.538 134.235L367.77 134.268C368.996 134.442 370.155 134.607 371.842 134.607Z" fill="black"/>
<path d="M420.562 115.602C420.562 121.05 416.915 124.578 408.963 124.578C399.935 124.578 396.886 120.245 395.87 114.55L401.908 113.312C402.805 116.964 404.599 119.44 409.083 119.44C412.49 119.44 414.164 118.079 414.224 115.788C414.224 113.683 412.789 112.569 407.169 111.517C399.577 109.969 396.886 107.245 396.886 102.603C396.886 97.3407 400.593 93.936 407.947 93.936C415.599 93.936 418.768 97.3407 419.964 102.912L413.806 104.336C412.969 100.498 411.295 98.8883 407.947 98.8883C404.898 98.8883 403.283 100.188 403.283 102.293C403.283 104.336 404.419 105.698 410.099 106.688C417.931 108.174 420.562 111.145 420.562 115.602Z" fill="black"/>
<path d="M425.148 114.921C425.148 120.369 427.778 124.578 433.936 124.578C436.687 124.578 438.181 124.207 440.214 123.526L439.437 117.398C439.305 117.43 439.173 117.463 439.04 117.496C437.904 117.781 436.716 118.079 435.431 118.079C432.621 118.079 431.545 116.655 431.545 113.807V100.312H439.855V94.6788H431.545V86.9408H425.148V94.6788H421.321V100.312H425.148V114.921Z" fill="black"/>
<path fill-rule="evenodd" clip-rule="evenodd" d="M468.267 115.107C466.832 120.679 463.005 124.517 455.592 124.517C446.983 124.517 441.243 119.193 441.243 109.598C441.243 99.7549 446.863 93.936 455.592 93.936C464.141 93.936 468.446 99.5073 468.446 107.493C468.446 108.669 468.446 109.845 468.326 111.393H447.7C448.298 116.283 451.048 118.698 455.652 118.698C460.136 118.698 461.81 116.407 462.647 113.436L468.267 115.107ZM462.467 106.441C462.109 101.922 459.837 99.5692 455.413 99.5692C451.168 99.5692 448.477 101.736 447.76 106.441H462.467Z" fill="black"/>
<path d="M477.801 106.564C477.801 102.417 480.312 99.9407 484.437 99.9407C488.801 99.9407 490.296 103.036 490.296 106.564V123.774H496.753V106.564C496.753 102.417 499.204 99.9407 503.329 99.9407C507.694 99.9407 509.248 103.036 509.248 106.564V123.774H515.645V104.831C515.645 98.5169 513.134 93.936 506.259 93.936C501.117 93.936 497.889 96.5359 496.753 103.036H496.693C496.215 97.6502 493.524 93.936 487.426 93.936C482.703 93.936 479.116 96.474 477.86 102.664H477.801V94.6788H471.344V123.774H477.801V106.564Z" fill="black"/>
<path d="M542.586 115.602C542.586 121.05 538.939 124.578 530.987 124.578C521.96 124.578 518.911 120.245 517.894 114.55L523.933 113.312C524.829 116.964 526.623 119.44 531.107 119.44C534.515 119.44 536.189 118.079 536.248 115.788C536.248 113.683 534.814 112.569 529.194 111.517C521.601 109.969 518.91 107.245 518.91 102.603C518.91 97.3407 522.617 93.936 529.971 93.936C537.624 93.936 540.792 97.3407 541.988 102.912L535.83 104.336C534.993 100.498 533.319 98.8883 529.971 98.8883C526.922 98.8883 525.308 100.188 525.308 102.293C525.308 104.336 526.444 105.698 532.123 106.688C539.955 108.174 542.586 111.145 542.586 115.602Z" fill="black"/>
<path d="M369.695 12.5622V18.4586H362.577V28.6007H369.695V54.9031C369.695 64.7108 374.589 72.2895 386.044 72.2895C391.16 72.2895 393.941 71.6207 397.722 70.3948L396.276 59.3611C396.156 59.3899 396.035 59.419 395.913 59.4483L395.539 59.5389C393.426 60.0511 391.214 60.5871 388.825 60.5871C383.597 60.5871 381.595 58.0237 381.595 52.897V28.6007H397.055V18.4586H381.595V4.52724H381.528L369.695 12.5622Z" fill="black"/>
<path d="M530.574 70.8406V10.8491L542.586 2.69266V70.8406H530.574Z" fill="black"/>
<path d="M415.43 2.52112V11.4372H402.418V2.52112H415.43Z" fill="black"/>
<path d="M414.985 18.4586V70.8406H402.974V18.4586H414.985Z" fill="black"/>
<path fill-rule="evenodd" clip-rule="evenodd" d="M220.474 25.8144C220.474 38.2969 211.799 47.6588 196.673 47.6588H182.993V70.8406H170.314V3.96998H196.228C212.244 3.96998 220.474 11.3257 220.474 25.8144ZM207.35 25.8144C207.35 18.5701 203.68 15.2265 195.116 15.2265H182.993V36.4022H195.339C203.235 36.4022 207.35 33.0587 207.35 25.8144Z" fill="black"/>
<path d="M237.496 44.3152V70.8406H225.484V27.028L237.496 18.8716V35.6221H237.718C240.054 22.025 244.725 18.4586 252.621 18.4586H255.624V31.9442H250.508C241.166 31.9442 237.496 35.1763 237.496 44.3152Z" fill="black"/>
<path fill-rule="evenodd" clip-rule="evenodd" d="M291.852 70.8406H303.752V38.2969C303.752 24.9228 297.302 17.3441 282.176 17.3441C267.384 17.3441 260.488 24.5884 258.931 36.2908L270.387 37.8511C271.61 30.2724 275.28 27.3747 281.731 27.3747C288.96 27.3747 291.852 31.2755 291.852 38.4083V40.5259H276.281C263.157 40.5259 257.374 47.4359 257.374 57.0207C257.374 67.0513 264.158 71.9551 273.834 71.9551C282.843 71.9551 289.183 67.0513 291.629 57.6894H291.852V70.8406ZM278.283 62.1474C271.499 62.1474 269.163 58.8039 269.163 55.126C269.163 51.5596 272.277 49.442 278.061 49.442H291.852V51.1138C291.852 57.4665 286.513 62.1474 278.283 62.1474Z" fill="black"/>
<path d="M360.668 38.4083L349.101 40.303C347.544 32.9472 343.652 28.0434 335.533 28.0434C326.969 28.0434 320.963 33.3931 320.963 44.6496C320.963 55.3489 326.858 61.2558 335.755 61.2558C344.542 61.2558 347.656 55.6833 349.324 48.216L360.779 50.5565C358.666 63.9306 351.103 72.2895 335.978 72.2895C319.517 72.2895 308.729 62.5932 308.729 44.761C308.729 27.3747 319.74 17.1212 335.644 17.1212C351.326 17.1212 358.555 24.9228 360.668 38.4083Z" fill="black"/>
<path d="M461.406 40.303L472.973 38.4083C470.86 24.9228 463.63 17.1212 447.949 17.1212C432.044 17.1212 421.034 27.3747 421.034 44.761C421.034 62.5932 431.822 72.2895 448.282 72.2895C463.408 72.2895 470.971 63.9306 473.084 50.5565L461.628 48.216C459.96 55.6833 456.846 61.2558 448.06 61.2558C439.162 61.2558 433.268 55.3489 433.268 44.6496C433.268 33.3931 439.273 28.0434 447.837 28.0434C455.956 28.0434 459.849 32.9472 461.406 40.303Z" fill="black"/>
<path fill-rule="evenodd" clip-rule="evenodd" d="M523.039 70.8406H511.139V57.6894H510.916C508.47 67.0513 502.13 71.9551 493.121 71.9551C483.445 71.9551 476.661 67.0513 476.661 57.0207C476.661 47.4359 482.444 40.5259 495.568 40.5259H511.139V38.4083C511.139 31.2755 508.247 27.3747 501.018 27.3747C494.567 27.3747 490.897 30.2724 489.674 37.8511L478.218 36.2908C479.775 24.5884 486.671 17.3441 501.463 17.3441C516.588 17.3441 523.039 24.9228 523.039 38.2969V70.8406ZM488.45 55.126C488.45 58.8039 490.786 62.1474 497.57 62.1474C505.8 62.1474 511.139 57.4665 511.139 51.1138V49.442H497.348C491.564 49.442 488.45 51.5596 488.45 55.126Z" fill="black"/>
</svg>
