<svg width="715" height="254" viewBox="0 0 715 254" fill="none" xmlns="http://www.w3.org/2000/svg">
<path fill-rule="evenodd" clip-rule="evenodd" d="M28.2476 232.883H0V161.546H28.0179C51.6724 161.546 63.0404 175.219 63.0404 196.62C63.0404 217.902 50.2945 232.883 28.2476 232.883ZM50.0648 196.62C50.0648 181.045 42.7159 172.96 26.2955 172.96H13.0903V221.469H26.9845C43.1752 221.469 50.0648 212.076 50.0648 196.62Z" fill="black"/>
<path fill-rule="evenodd" clip-rule="evenodd" d="M93.3153 234.31C107.554 234.31 114.903 226.938 117.659 216.238L106.865 213.027C105.257 218.734 102.042 223.134 93.4302 223.134C84.5885 223.134 79.3064 218.497 78.1581 209.104H117.774C118.003 206.131 118.003 203.872 118.003 201.613C118.003 186.276 109.736 175.575 93.3153 175.575C76.5505 175.575 65.7567 186.751 65.7567 205.656C65.7567 224.085 76.7802 234.31 93.3153 234.31ZM92.9709 186.395C101.468 186.395 105.832 190.913 106.521 199.592H78.2729C79.6509 190.556 84.8181 186.395 92.9709 186.395Z" fill="black"/>
<path d="M167.663 217.189C167.663 227.652 160.658 234.429 145.386 234.429C128.047 234.429 122.191 226.106 120.239 215.168L131.836 212.79C133.559 219.804 137.004 224.56 145.616 224.56C152.161 224.56 155.376 221.945 155.491 217.545C155.491 213.503 152.735 211.363 141.941 209.342C127.358 206.369 122.191 201.138 122.191 192.221C122.191 182.115 129.31 175.575 143.434 175.575C158.132 175.575 164.218 182.115 166.514 192.815L154.687 195.55C153.08 188.178 149.864 185.087 143.434 185.087C137.578 185.087 134.477 187.584 134.477 191.626C134.477 195.55 136.659 198.165 147.568 200.068C162.61 202.921 167.663 208.628 167.663 217.189Z" fill="black"/>
<path d="M186.461 169.512V160H173.026V169.512H186.461Z" fill="black"/>
<path d="M186.002 232.883V177.002H173.6V232.883H186.002Z" fill="black"/>
<path fill-rule="evenodd" clip-rule="evenodd" d="M244.838 234.547C244.838 245.01 237.833 250.836 217.394 250.717C196.38 250.836 190.524 246.318 190.524 239.303C190.524 234.547 195.002 230.862 203.385 229.792C198.103 229.078 195.117 226.463 195.117 222.301C195.117 219.448 197.529 216.475 201.892 214.93L206.026 213.027C197.988 210.412 193.624 204.467 193.624 196.144C193.624 183.898 202.236 177.002 216.82 177.002H243.23V187.822H236.225C233.584 187.822 230.943 187.822 227.154 187.584V187.703C233.814 189.01 238.866 191.983 238.866 199.473C238.866 209.342 230.943 214.454 216.245 214.454C212.801 214.454 209.7 214.097 206.944 213.265L205.796 215.168C205.662 215.4 205.532 215.614 205.409 215.815C204.905 216.644 204.533 217.256 204.533 218.021C204.533 220.161 206.026 220.993 209.241 220.993C212.516 220.993 215.909 220.901 219.241 220.81C222.45 220.723 225.602 220.637 228.532 220.637C240.015 220.637 244.838 225.868 244.838 234.547ZM228.188 196.858C228.188 191.032 224.283 187.584 216.245 187.584C207.978 187.584 204.763 191.27 204.763 196.858C204.763 202.446 207.863 206.013 216.36 206.013C224.858 206.013 228.188 202.565 228.188 196.858ZM200.17 235.38C200.17 239.66 203.385 241.206 217.164 241.206C231.862 241.206 234.962 239.065 234.962 234.547C234.962 232.051 233.47 229.911 228.991 229.911H208.322C202.696 229.911 200.17 232.645 200.17 235.38Z" fill="black"/>
<path d="M261.002 199.83C261.002 191.864 265.825 187.108 273.748 187.108C282.13 187.108 285.001 193.053 285.001 199.83V232.883H297.403V196.501C297.403 184.374 292.465 175.575 279.489 175.575C270.418 175.575 263.528 180.45 261.117 192.34H261.002V177.002H248.601V232.883H261.002V199.83Z" fill="black"/>
<path d="M377.621 212.908C377.621 225.749 369.009 234.429 350.063 234.429C329.164 234.31 320.782 223.015 319.174 209.223L331.805 206.607C333.642 216.713 340.302 222.658 350.866 222.658C359.708 222.658 364.301 219.091 364.301 213.384C364.301 207.558 360.282 204.586 347.307 202.565C328.245 199.473 322.16 191.507 322.16 180.688C322.16 168.085 331.116 160 347.881 160C366.024 160 373.373 170.106 376.014 183.185L363.153 185.919C360.971 176.526 357.067 171.533 347.307 171.533C339.613 171.533 335.365 175.1 335.365 180.45C335.365 185.206 337.891 188.654 353.048 191.27C372.454 194.48 377.621 202.802 377.621 212.908Z" fill="black"/>
<path d="M387.063 253.69C399.465 253.69 406.125 247.507 411.636 233.477L433.798 177.002H420.478L414.162 197.452C412.982 201.335 411.507 205.784 409.967 210.43L409.966 210.432L409.966 210.433C408.96 213.468 407.926 216.586 406.928 219.686H406.584C405.015 214.959 403.269 209.912 401.648 205.228L401.64 205.205C400.654 202.355 399.715 199.64 398.89 197.214L391.886 177.002H378.336L400.153 231.932C396.709 240.373 393.608 241.8 387.408 241.8C385.111 241.8 382.929 241.443 380.518 240.968L378.796 252.976L379.241 253.039C381.597 253.374 383.822 253.69 387.063 253.69Z" fill="black"/>
<path d="M480.635 217.189C480.635 227.652 473.631 234.429 458.359 234.429C441.02 234.429 435.163 226.106 433.211 215.168L444.809 212.79C446.531 219.804 449.976 224.56 458.588 224.56C465.133 224.56 468.348 221.945 468.463 217.545C468.463 213.503 465.707 211.363 454.914 209.342C440.331 206.369 435.163 201.138 435.163 192.221C435.163 182.115 442.283 175.575 456.406 175.575C471.104 175.575 477.19 182.115 479.487 192.815L467.66 195.55C466.052 188.178 462.837 185.087 456.406 185.087C450.55 185.087 447.45 187.584 447.45 191.626C447.45 195.55 449.632 198.165 460.54 200.068C475.583 202.921 480.635 208.628 480.635 217.189Z" fill="black"/>
<path d="M489.444 215.881C489.444 226.344 494.496 234.429 506.323 234.429C511.605 234.429 514.476 233.715 518.38 232.407L516.887 220.637C516.635 220.699 516.381 220.762 516.126 220.826C513.945 221.373 511.661 221.945 509.194 221.945C503.797 221.945 501.73 219.21 501.73 213.741V187.822H517.691V177.002H501.73V162.14H489.444V177.002H482.095V187.822H489.444V215.881Z" fill="black"/>
<path fill-rule="evenodd" clip-rule="evenodd" d="M572.259 216.238C569.504 226.938 562.155 234.31 547.916 234.31C531.381 234.31 520.357 224.085 520.357 205.656C520.357 186.751 531.151 175.575 547.916 175.575C564.336 175.575 572.604 186.276 572.604 201.613C572.604 203.872 572.604 206.131 572.374 209.104H532.759C533.907 218.497 539.189 223.134 548.031 223.134C556.643 223.134 559.858 218.734 561.466 213.027L572.259 216.238ZM561.121 199.592C560.432 190.913 556.069 186.395 547.571 186.395C539.419 186.395 534.251 190.556 532.874 199.592H561.121Z" fill="black"/>
<path d="M590.571 199.83C590.571 191.864 595.394 187.108 603.317 187.108C611.699 187.108 614.57 193.053 614.57 199.83V232.883H626.971V199.83C626.971 191.864 631.679 187.108 639.602 187.108C647.985 187.108 650.97 193.053 650.97 199.83V232.883H663.257V196.501C663.257 184.374 658.434 175.575 645.229 175.575C635.354 175.575 629.153 180.569 626.971 193.053H626.856C625.938 182.709 620.77 175.575 609.058 175.575C599.987 175.575 593.097 180.45 590.686 192.34H590.571V177.002H578.169V232.883H590.571V199.83Z" fill="black"/>
<path d="M715 217.189C715 227.652 707.995 234.429 692.723 234.429C675.384 234.429 669.528 226.106 667.576 215.168L679.174 212.79C680.896 219.804 684.341 224.56 692.953 224.56C699.498 224.56 702.713 221.945 702.828 217.545C702.828 213.503 700.072 211.363 689.279 209.342C674.695 206.369 669.528 201.138 669.528 192.221C669.528 182.115 676.648 175.575 690.771 175.575C705.469 175.575 711.555 182.115 713.852 192.815L702.024 195.55C700.417 188.178 697.202 185.087 690.771 185.087C684.915 185.087 681.815 187.584 681.815 191.626C681.815 195.55 683.997 198.165 694.905 200.068C709.948 202.921 715 208.628 715 217.189Z" fill="black"/>
<path d="M382.939 19.2853V30.6102H369.268V50.0895H382.939V100.607C382.939 119.444 392.338 134 414.34 134C424.166 134 429.506 132.716 436.769 130.361L433.992 109.169C433.76 109.225 433.528 109.281 433.295 109.337L432.576 109.511C428.517 110.494 424.27 111.524 419.68 111.524C409.64 111.524 405.795 106.601 405.795 96.754V50.0895H435.487V30.6102H405.795V3.85304H405.665L382.939 19.2853Z" fill="black"/>
<path d="M691.93 131.217V15.9951L715 0.329471V131.217H691.93Z" fill="black"/>
<path d="M470.78 0V17.1246H445.787V0H470.78Z" fill="black"/>
<path d="M469.925 30.6102V131.217H446.855V30.6102H469.925Z" fill="black"/>
<path fill-rule="evenodd" clip-rule="evenodd" d="M96.3384 44.738C96.3384 68.7125 79.6768 86.6933 50.6257 86.6933H24.3516V131.217H0V2.78275H49.7713C80.5312 2.78275 96.3384 16.9105 96.3384 44.738ZM71.1324 44.738C71.1324 30.8243 64.0832 24.4026 47.6352 24.4026H24.3516V65.0735H48.0624C63.2288 65.0735 71.1324 58.6518 71.1324 44.738Z" fill="black"/>
<path d="M129.031 80.2716V131.217H105.961V47.069L129.031 31.4034V63.5751H129.458C133.944 37.4601 142.916 30.6102 158.082 30.6102H163.849V56.5112H154.023C136.08 56.5112 129.031 62.7188 129.031 80.2716Z" fill="black"/>
<path fill-rule="evenodd" clip-rule="evenodd" d="M233.43 131.217H256.286V68.7125C256.286 43.0255 243.897 28.4697 214.846 28.4697C186.435 28.4697 173.192 42.3834 170.201 64.8594L192.203 67.8562C194.553 53.3003 201.602 47.7348 213.991 47.7348C227.876 47.7348 233.43 55.2268 233.43 68.9265V72.9936H203.524C178.318 72.9936 167.21 86.2652 167.21 104.674C167.21 123.939 180.241 133.358 198.825 133.358C216.127 133.358 228.303 123.939 233.003 105.958H233.43V131.217ZM207.369 114.521C194.339 114.521 189.853 108.099 189.853 101.035C189.853 94.1853 195.834 90.1182 206.942 90.1182H233.43V93.3291C233.43 105.53 223.176 114.521 207.369 114.521Z" fill="black"/>
<path d="M365.601 68.9265L343.386 72.5655C340.395 58.4377 332.919 49.0192 317.325 49.0192C300.877 49.0192 289.342 59.2939 289.342 80.9137C289.342 101.463 300.664 112.808 317.753 112.808C334.628 112.808 340.609 102.105 343.813 87.7636L365.815 92.2588C361.756 117.946 347.231 134 318.18 134C286.565 134 265.845 115.377 265.845 81.1278C265.845 47.7348 286.993 28.0415 317.539 28.0415C347.658 28.0415 361.543 43.0256 365.601 68.9265Z" fill="black"/>
<path d="M559.083 72.5655L581.298 68.9265C577.239 43.0256 563.355 28.0415 533.236 28.0415C502.689 28.0415 481.542 47.7348 481.542 81.1278C481.542 115.377 502.262 134 533.877 134C562.928 134 577.453 117.946 581.512 92.2588L559.51 87.7636C556.306 102.105 550.325 112.808 533.449 112.808C516.36 112.808 505.039 101.463 505.039 80.9137C505.039 59.2939 516.574 49.0192 533.022 49.0192C548.616 49.0192 556.092 58.4377 559.083 72.5655Z" fill="black"/>
<path fill-rule="evenodd" clip-rule="evenodd" d="M677.458 131.217H654.602V105.958H654.174C649.475 123.939 637.299 133.358 619.997 133.358C601.413 133.358 588.382 123.939 588.382 104.674C588.382 86.2652 599.49 72.9936 624.696 72.9936H654.602V68.9265C654.602 55.2268 649.048 47.7348 635.163 47.7348C622.774 47.7348 615.724 53.3003 613.375 67.8562L591.373 64.8594C594.363 42.3834 607.607 28.4697 636.017 28.4697C665.068 28.4697 677.458 43.0255 677.458 68.7125V131.217ZM611.025 101.035C611.025 108.099 615.511 114.521 628.541 114.521C644.348 114.521 654.602 105.53 654.602 93.3291V90.1182H628.114C617.006 90.1182 611.025 94.1853 611.025 101.035Z" fill="black"/>
</svg>
