<svg width="230" height="88" viewBox="0 0 230 88" fill="none" xmlns="http://www.w3.org/2000/svg">
<path opacity="0.8" d="M14.4502 68.8438V33.4792L44.606 10.4512V63.0868L14.4502 68.8438Z" fill="#E92C41"/>
<path opacity="0.8" d="M28.9014 79.2946V0L0 29.2723V79.2946H28.9014Z" fill="#FCE033"/>
<path d="M37.1548 87.9999V70.6963L7.1084 74.3759V82.9762L37.1548 87.9999Z" fill="#2D8595" fill-opacity="0.7"/>
<path d="M150.968 29.3433V32.0297H147.718V36.6505H150.968V48.634C150.968 53.1024 153.202 56.5552 158.432 56.5552C160.768 56.5552 162.037 56.2506 163.764 55.692L163.104 50.6651C163.049 50.6782 162.993 50.6914 162.938 50.7048L162.767 50.7461C161.802 50.9794 160.793 51.2236 159.702 51.2236C157.315 51.2236 156.401 50.0557 156.401 47.72V36.6505H163.459V32.0297H156.401V25.6825H156.37L150.968 29.3433Z" fill="white"/>
<path d="M224.418 55.8951V28.5628L229.902 24.8467V55.8951H224.418Z" fill="white"/>
<path d="M171.849 24.7686V28.8307H165.908V24.7686H171.849Z" fill="white"/>
<path d="M171.645 32.0297V55.8951H166.161V32.0297H171.645Z" fill="white"/>
<path fill-rule="evenodd" clip-rule="evenodd" d="M82.8401 35.381C82.8401 41.0681 78.8794 45.3334 71.9737 45.3334H65.7281V55.8951H59.9395V25.4287H71.7706C79.0826 25.4287 82.8401 28.78 82.8401 35.381ZM76.8483 35.381C76.8483 32.0805 75.1727 30.5572 71.2628 30.5572H65.7281V40.2049H71.3644C74.9696 40.2049 76.8483 38.6816 76.8483 35.381Z" fill="white"/>
<path d="M90.6114 43.8101V55.8951H85.1274V35.934L90.6114 32.2179V39.8495H90.713C91.7793 33.6546 93.9119 32.0297 97.5171 32.0297H98.8881V38.1738H96.5524C92.2871 38.1738 90.6114 39.6463 90.6114 43.8101Z" fill="white"/>
<path fill-rule="evenodd" clip-rule="evenodd" d="M115.428 55.8951H120.861V41.0681C120.861 34.9748 117.916 31.522 111.01 31.522C104.257 31.522 101.109 34.8225 100.398 40.1541L105.628 40.865C106.187 37.4121 107.862 36.0919 110.807 36.0919C114.108 36.0919 115.428 37.8691 115.428 41.1189V42.0837H108.319C102.328 42.0837 99.6871 45.2319 99.6871 49.5987C99.6871 54.1687 102.785 56.4029 107.202 56.4029C111.315 56.4029 114.209 54.1687 115.327 49.9034H115.428V55.8951ZM109.233 51.9345C106.136 51.9345 105.069 50.4112 105.069 48.7355C105.069 47.1106 106.491 46.1459 109.132 46.1459H115.428V46.9075C115.428 49.8018 112.991 51.9345 109.233 51.9345Z" fill="white"/>
<path d="M146.847 41.1189L141.566 41.9821C140.855 38.6308 139.078 36.3966 135.371 36.3966C131.461 36.3966 128.719 38.8339 128.719 43.9624C128.719 48.8371 131.41 51.5283 135.472 51.5283C139.484 51.5283 140.906 48.9894 141.667 45.5873L146.897 46.6536C145.933 52.7469 142.48 56.5552 135.574 56.5552C128.059 56.5552 123.134 52.1376 123.134 44.0132C123.134 36.0919 128.161 31.4204 135.422 31.4204C142.581 31.4204 145.882 34.9748 146.847 41.1189Z" fill="white"/>
<path d="M192.839 41.9821L198.12 41.1189C197.155 34.9748 193.855 31.4204 186.695 31.4204C179.434 31.4204 174.407 36.0919 174.407 44.0132C174.407 52.1376 179.332 56.5552 186.847 56.5552C193.753 56.5552 197.206 52.7469 198.171 46.6536L192.941 45.5873C192.179 48.9894 190.757 51.5283 186.746 51.5283C182.684 51.5283 179.992 48.8371 179.992 43.9624C179.992 38.8339 182.734 36.3966 186.644 36.3966C190.351 36.3966 192.128 38.6308 192.839 41.9821Z" fill="white"/>
<path fill-rule="evenodd" clip-rule="evenodd" d="M220.978 55.8951H215.545V49.9034H215.443C214.326 54.1687 211.432 56.4029 207.319 56.4029C202.901 56.4029 199.804 54.1687 199.804 49.5987C199.804 45.2319 202.444 42.0837 208.436 42.0837H215.545V41.1189C215.545 37.8691 214.225 36.0919 210.924 36.0919C207.979 36.0919 206.303 37.4121 205.745 40.865L200.515 40.1541C201.226 34.8225 204.374 31.522 211.127 31.522C218.033 31.522 220.978 34.9748 220.978 41.0681V55.8951ZM205.186 48.7355C205.186 50.4112 206.253 51.9345 209.35 51.9345C213.108 51.9345 215.545 49.8018 215.545 46.9075V46.1459H209.249C206.608 46.1459 205.186 47.1106 205.186 48.7355Z" fill="white"/>
<path fill-rule="evenodd" clip-rule="evenodd" d="M66.6473 79.7226H59.9395V63.2103H66.5927C72.2098 63.2103 74.9093 66.3752 74.9093 71.3289C74.9093 76.2551 71.8826 79.7226 66.6473 79.7226ZM71.8281 71.3289C71.8281 67.7237 70.083 65.8523 66.1837 65.8523H63.0479V77.0807H66.3473C70.192 77.0807 71.8281 74.9065 71.8281 71.3289Z" fill="white"/>
<path fill-rule="evenodd" clip-rule="evenodd" d="M82.0985 80.0529C85.4797 80.0529 87.2248 78.3466 87.8792 75.8698L85.3161 75.1267C84.9343 76.4477 84.1709 77.466 82.1258 77.466C80.0262 77.466 78.7719 76.3927 78.4992 74.2185H87.9065C87.961 73.5305 87.961 73.0076 87.961 72.4847C87.961 68.9346 85.9978 66.4577 82.0985 66.4577C78.1175 66.4577 75.5543 69.0447 75.5543 73.4204C75.5543 77.6861 78.172 80.0529 82.0985 80.0529ZM82.0167 68.9621C84.0345 68.9621 85.0707 70.0079 85.2343 72.0169H78.5265C78.8537 69.9253 80.0807 68.9621 82.0167 68.9621Z" fill="white"/>
<path d="M99.7534 76.0899C99.7534 78.5117 98.0901 80.0804 94.4635 80.0804C90.3461 80.0804 88.9554 78.154 88.4919 75.6221L91.2459 75.0717C91.6549 76.6954 92.4729 77.7962 94.518 77.7962C96.0723 77.7962 96.8357 77.1907 96.863 76.1725C96.863 75.2368 96.2086 74.7414 93.6455 74.2736C90.1825 73.5856 88.9555 72.3747 88.9555 70.3106C88.9555 67.9714 90.646 66.4577 93.9999 66.4577C97.4902 66.4577 98.9353 67.9714 99.4807 70.4482L96.6721 71.0812C96.2904 69.3749 95.5269 68.6594 93.9999 68.6594C92.6093 68.6594 91.8731 69.2373 91.8731 70.173C91.8731 71.0812 92.3912 71.6866 94.9816 72.127C98.5536 72.7875 99.7534 74.1084 99.7534 76.0899Z" fill="white"/>
<path d="M104.217 65.0542V62.8525H101.027V65.0542H104.217Z" fill="white"/>
<path d="M104.108 79.7226V66.788H101.163V79.7226H104.108Z" fill="white"/>
<path fill-rule="evenodd" clip-rule="evenodd" d="M118.08 80.1079C118.08 82.5297 116.416 83.8782 111.563 83.8507C106.573 83.8782 105.182 82.8325 105.182 81.2088C105.182 80.1079 106.246 79.2548 108.236 79.0071C106.982 78.842 106.273 78.2365 106.273 77.2733C106.273 76.6128 106.845 75.9248 107.882 75.567L108.863 75.1267C106.955 74.5213 105.918 73.1452 105.918 71.2188C105.918 68.3842 107.963 66.788 111.426 66.788H117.698V69.2923H116.035C115.407 69.2923 114.78 69.2923 113.88 69.2373V69.2648C115.462 69.5676 116.662 70.2556 116.662 71.9894C116.662 74.2736 114.78 75.457 111.29 75.457C110.472 75.457 109.736 75.3744 109.081 75.1817L108.809 75.6221C108.777 75.6758 108.746 75.7253 108.717 75.7719C108.597 75.9639 108.509 76.1054 108.509 76.2826C108.509 76.7779 108.863 76.9706 109.627 76.9706C110.404 76.9706 111.21 76.9492 112.001 76.9282C112.764 76.9079 113.512 76.888 114.208 76.888C116.934 76.888 118.08 78.0989 118.08 80.1079ZM114.126 71.3839C114.126 70.0354 113.199 69.2373 111.29 69.2373C109.327 69.2373 108.563 70.0904 108.563 71.3839C108.563 72.6774 109.3 73.503 111.317 73.503C113.335 73.503 114.126 72.7049 114.126 71.3839ZM107.473 80.3006C107.473 81.2913 108.236 81.6491 111.508 81.6491C114.998 81.6491 115.735 81.1537 115.735 80.1079C115.735 79.53 115.38 79.0346 114.317 79.0346H109.409C108.073 79.0346 107.473 79.6676 107.473 80.3006Z" fill="white"/>
<path d="M121.918 72.0719C121.918 70.228 123.063 69.1272 124.945 69.1272C126.935 69.1272 127.617 70.5033 127.617 72.0719V79.7226H130.562V71.3014C130.562 68.4943 129.39 66.4577 126.308 66.4577C124.154 66.4577 122.518 67.5861 121.945 70.3381H121.918V66.788H118.973V79.7226H121.918V72.0719Z" fill="white"/>
<path d="M149.611 75.0992C149.611 78.0714 147.566 80.0804 143.067 80.0804C138.104 80.0529 136.114 77.4384 135.732 74.246L138.731 73.6406C139.168 75.9798 140.749 77.3559 143.258 77.3559C145.357 77.3559 146.448 76.5303 146.448 75.2093C146.448 73.8608 145.494 73.1727 142.412 72.7049C137.886 71.9894 136.441 70.1455 136.441 67.6411C136.441 64.7239 138.568 62.8525 142.549 62.8525C146.857 62.8525 148.602 65.1918 149.229 68.219L146.175 68.852C145.657 66.6779 144.73 65.522 142.412 65.522C140.586 65.522 139.577 66.3477 139.577 67.5861C139.577 68.6869 140.177 69.485 143.776 70.0904C148.384 70.8335 149.611 72.7599 149.611 75.0992Z" fill="white"/>
<path d="M151.853 84.5387C154.798 84.5387 156.38 83.1077 157.688 79.8602L162.951 66.788H159.788L158.288 71.5215C158.008 72.4204 157.658 73.4501 157.292 74.5255L157.292 74.526L157.292 74.5263C157.053 75.2286 156.807 75.9504 156.57 76.6679H156.489C156.116 75.5739 155.701 74.4056 155.317 73.3213L155.315 73.316C155.081 72.6564 154.858 72.028 154.662 71.4665L152.998 66.788H149.781L154.962 79.5025C154.144 81.4564 153.407 81.7867 151.935 81.7867C151.39 81.7867 150.872 81.7041 150.299 81.594L149.89 84.3736L149.996 84.3882C150.555 84.4656 151.083 84.5387 151.853 84.5387Z" fill="white"/>
<path d="M174.073 76.0899C174.073 78.5117 172.41 80.0804 168.783 80.0804C164.666 80.0804 163.275 78.154 162.812 75.6221L165.566 75.0717C165.975 76.6954 166.793 77.7962 168.838 77.7962C170.392 77.7962 171.156 77.1907 171.183 76.1725C171.183 75.2368 170.528 74.7414 167.965 74.2736C164.502 73.5856 163.275 72.3747 163.275 70.3106C163.275 67.9714 164.966 66.4577 168.32 66.4577C171.81 66.4577 173.255 67.9714 173.801 70.4482L170.992 71.0812C170.61 69.3749 169.847 68.6594 168.32 68.6594C166.929 68.6594 166.193 69.2373 166.193 70.173C166.193 71.0812 166.711 71.6866 169.301 72.127C172.873 72.7875 174.073 74.1084 174.073 76.0899Z" fill="white"/>
<path d="M176.165 75.7872C176.165 78.209 177.365 80.0804 180.173 80.0804C181.428 80.0804 182.109 79.9153 183.036 79.6126L182.682 76.888C182.622 76.9024 182.562 76.9171 182.501 76.9319C181.983 77.0584 181.441 77.1908 180.855 77.1908C179.573 77.1908 179.083 76.5578 179.083 75.2918V69.2923H182.873V66.788H179.083V63.3479H176.165V66.788H174.42V69.2923H176.165V75.7872Z" fill="white"/>
<path fill-rule="evenodd" clip-rule="evenodd" d="M195.831 75.8698C195.176 78.3466 193.431 80.0529 190.05 80.0529C186.124 80.0529 183.506 77.6861 183.506 73.4204C183.506 69.0447 186.069 66.4577 190.05 66.4577C193.949 66.4577 195.913 68.9346 195.913 72.4847C195.913 73.0076 195.913 73.5305 195.858 74.2185H186.451C186.723 76.3927 187.978 77.466 190.077 77.466C192.122 77.466 192.886 76.4477 193.268 75.1267L195.831 75.8698ZM193.186 72.0169C193.022 70.0079 191.986 68.9621 189.968 68.9621C188.032 68.9621 186.805 69.9253 186.478 72.0169H193.186Z" fill="white"/>
<path d="M200.179 72.0719C200.179 70.228 201.324 69.1272 203.206 69.1272C205.196 69.1272 205.878 70.5033 205.878 72.0719V79.7226H208.823V72.0719C208.823 70.228 209.941 69.1272 211.822 69.1272C213.813 69.1272 214.522 70.5033 214.522 72.0719V79.7226H217.439V71.3014C217.439 68.4943 216.294 66.4577 213.158 66.4577C210.813 66.4577 209.341 67.6136 208.823 70.5033H208.796C208.577 68.109 207.35 66.4577 204.569 66.4577C202.415 66.4577 200.779 67.5861 200.206 70.3381H200.179V66.788H197.234V79.7226H200.179V72.0719Z" fill="white"/>
<path d="M229.727 76.0899C229.727 78.5117 228.063 80.0804 224.437 80.0804C220.319 80.0804 218.929 78.154 218.465 75.6221L221.219 75.0717C221.628 76.6954 222.446 77.7962 224.491 77.7962C226.045 77.7962 226.809 77.1907 226.836 76.1725C226.836 75.2368 226.182 74.7414 223.619 74.2736C220.156 73.5856 218.929 72.3747 218.929 70.3106C218.929 67.9714 220.619 66.4577 223.973 66.4577C227.463 66.4577 228.909 67.9714 229.454 70.4482L226.645 71.0812C226.264 69.3749 225.5 68.6594 223.973 68.6594C222.582 68.6594 221.846 69.2373 221.846 70.173C221.846 71.0812 222.364 71.6866 224.955 72.127C228.527 72.7875 229.727 74.1084 229.727 76.0899Z" fill="white"/>
</svg>
