<svg width="1024" height="294" viewBox="0 0 1024 294" fill="none" xmlns="http://www.w3.org/2000/svg">
  <g class="c-logo-shape--outline c-logo-shape__blue--outline"><path d="M516.781 131.297C518.909 130.901 521.091 130.901 523.219 131.297C525.737 131.765 527.984 132.901 529.07 133.45C529.181 133.506 529.281 133.557 529.367 133.599L641.568 189.187C645.51 191.14 648 195.133 648 199.5C648 203.867 645.51 207.86 641.568 209.813L529.367 265.401C529.281 265.443 529.181 265.494 529.07 265.55C527.984 266.099 525.737 267.235 523.219 267.703C521.091 268.099 518.909 268.099 516.781 267.703C514.263 267.235 512.016 266.099 510.93 265.55C510.819 265.494 510.719 265.443 510.633 265.401L398.432 209.813C394.49 207.86 392 203.867 392 199.5C392 195.133 394.49 191.14 398.432 189.187L510.633 133.599C510.719 133.557 510.819 133.506 510.93 133.45C512.016 132.901 514.263 131.765 516.781 131.297Z" fill="transparent"/></g>
  <g class="c-logo-shape--outline c-logo-shape__green--outline"><path d="M516.781 78.3009C518.909 77.8997 521.091 77.8997 523.219 78.3009C525.737 78.776 527.984 79.9286 529.07 80.4856C529.181 80.5429 529.281 80.594 529.367 80.6373L641.568 137.037C645.51 139.018 648 143.069 648 147.5C648 151.931 645.51 155.982 641.568 157.963L529.367 214.363C529.281 214.406 529.181 214.457 529.07 214.514C527.984 215.071 525.737 216.224 523.219 216.699C521.091 217.1 518.909 217.1 516.781 216.699C514.263 216.224 512.016 215.071 510.93 214.514C510.819 214.457 510.719 214.406 510.633 214.363L398.432 157.963C394.49 155.982 392 151.931 392 147.5C392 143.069 394.49 139.018 398.432 137.037L510.633 80.6373C510.719 80.594 510.819 80.5429 510.93 80.4855C512.016 79.9286 514.263 78.776 516.781 78.3009Z" fill="transparent"/></g>
  <g class="c-logo-shape--outline c-logo-shape__red--outline"><path d="M516.781 27.3009C518.909 26.8997 521.091 26.8997 523.219 27.3009C525.737 27.776 527.984 28.9286 529.07 29.4856C529.181 29.5429 529.281 29.594 529.367 29.6373L641.568 86.0366C645.51 88.0182 648 92.069 648 96.5C648 100.931 645.51 104.982 641.568 106.963L529.367 163.363C529.281 163.406 529.181 163.457 529.07 163.514C527.984 164.071 525.737 165.224 523.219 165.699C521.091 166.1 518.909 166.1 516.781 165.699C514.263 165.224 512.016 164.071 510.93 163.514C510.819 163.457 510.719 163.406 510.633 163.363L398.432 106.963C394.49 104.982 392 100.931 392 96.5C392 92.069 394.49 88.0182 398.432 86.0366L510.633 29.6373C510.719 29.594 510.819 29.5429 510.93 29.4855C512.016 28.9286 514.263 27.776 516.781 27.3009Z" fill="transparent"/></g>

  <g class="c-logo-shape c-logo-shape__blue"><path d="M516.781 131.297C518.909 130.901 521.091 130.901 523.219 131.297C525.737 131.765 527.984 132.901 529.07 133.45C529.181 133.506 529.281 133.557 529.367 133.599L641.568 189.187C645.51 191.14 648 195.133 648 199.5C648 203.867 645.51 207.86 641.568 209.813L529.367 265.401C529.281 265.443 529.181 265.494 529.07 265.55C527.984 266.099 525.737 267.235 523.219 267.703C521.091 268.099 518.909 268.099 516.781 267.703C514.263 267.235 512.016 266.099 510.93 265.55C510.819 265.494 510.719 265.443 510.633 265.401L398.432 209.813C394.49 207.86 392 203.867 392 199.5C392 195.133 394.49 191.14 398.432 189.187L510.633 133.599C510.719 133.557 510.819 133.506 510.93 133.45C512.016 132.901 514.263 131.765 516.781 131.297Z" fill="#0008FF"/></g>
  <g class="c-logo-shape c-logo-shape__green"><path d="M516.781 78.3009C518.909 77.8997 521.091 77.8997 523.219 78.3009C525.737 78.776 527.984 79.9286 529.07 80.4856C529.181 80.5429 529.281 80.594 529.367 80.6373L641.568 137.037C645.51 139.018 648 143.069 648 147.5C648 151.931 645.51 155.982 641.568 157.963L529.367 214.363C529.281 214.406 529.181 214.457 529.07 214.514C527.984 215.071 525.737 216.224 523.219 216.699C521.091 217.1 518.909 217.1 516.781 216.699C514.263 216.224 512.016 215.071 510.93 214.514C510.819 214.457 510.719 214.406 510.633 214.363L398.432 157.963C394.49 155.982 392 151.931 392 147.5C392 143.069 394.49 139.018 398.432 137.037L510.633 80.6373C510.719 80.594 510.819 80.5429 510.93 80.4855C512.016 79.9286 514.263 78.776 516.781 78.3009Z" fill="#00FF7C"/></g>
  <g class="c-logo-shape c-logo-shape__red"><path d="M516.781 27.3009C518.909 26.8997 521.091 26.8997 523.219 27.3009C525.737 27.776 527.984 28.9286 529.07 29.4856C529.181 29.5429 529.281 29.594 529.367 29.6373L641.568 86.0366C645.51 88.0182 648 92.069 648 96.5C648 100.931 645.51 104.982 641.568 106.963L529.367 163.363C529.281 163.406 529.181 163.457 529.07 163.514C527.984 164.071 525.737 165.224 523.219 165.699C521.091 166.1 518.909 166.1 516.781 165.699C514.263 165.224 512.016 164.071 510.93 163.514C510.819 163.457 510.719 163.406 510.633 163.363L398.432 106.963C394.49 104.982 392 100.931 392 96.5C392 92.069 394.49 88.0182 398.432 86.0366L510.633 29.6373C510.719 29.594 510.819 29.5429 510.93 29.4855C512.016 28.9286 514.263 27.776 516.781 27.3009Z" fill="#FF000A"/></g>
  
  
</svg>
  