<?xml version="1.0" standalone="no"?>
<!DOCTYPE svg PUBLIC "-//W3C//DTD SVG 20010904//EN"
 "http://www.w3.org/TR/2001/REC-SVG-20010904/DTD/svg10.dtd">
<svg version="1.0" xmlns="http://www.w3.org/2000/svg"
 width="512.000000pt" height="512.000000pt" viewBox="0 0 512.000000 512.000000"
 preserveAspectRatio="xMidYMid meet">
<metadata>
Created by potrace 1.14, written by Peter Selinger 2001-2017
</metadata>
<g transform="translate(0.000000,512.000000) scale(0.100000,-0.100000)"
fill="#000000" stroke="none">
<path d="M2460 4911 c-25 -9 -74 -33 -110 -53 -36 -19 -94 -51 -130 -70 -201
-108 -248 -133 -275 -149 -16 -10 -55 -30 -85 -45 -30 -15 -84 -44 -120 -64
-36 -20 -109 -60 -162 -89 -54 -28 -117 -62 -140 -75 -41 -22 -140 -75 -258
-139 -30 -16 -77 -42 -105 -57 -27 -15 -90 -49 -140 -75 -49 -26 -115 -61
-145 -78 -92 -50 -172 -93 -240 -129 -36 -19 -105 -57 -155 -83 -118 -63 -146
-86 -174 -137 -67 -125 -19 -269 114 -339 22 -12 69 -37 105 -56 36 -20 94
-52 130 -71 36 -19 90 -49 120 -65 30 -17 68 -37 83 -45 l29 -14 -39 -22 c-21
-12 -83 -46 -138 -75 -55 -30 -118 -64 -140 -76 -22 -12 -76 -42 -120 -65 -95
-50 -110 -62 -141 -116 -31 -53 -41 -129 -24 -188 21 -77 66 -117 233 -207
148 -80 176 -96 360 -194 l89 -47 -44 -25 c-24 -14 -72 -40 -108 -59 -99 -52
-199 -106 -271 -146 -35 -19 -91 -50 -124 -68 -33 -18 -71 -45 -83 -59 -56
-61 -75 -158 -48 -238 32 -95 23 -88 591 -393 39 -20 126 -68 195 -105 225
-122 244 -132 315 -170 39 -21 104 -56 145 -78 41 -22 102 -55 135 -72 96 -51
217 -117 260 -142 22 -12 47 -26 55 -30 8 -4 114 -60 235 -125 308 -166 336
-179 398 -185 92 -8 101 -4 512 217 28 15 138 74 245 132 107 58 231 125 275
148 44 23 103 55 130 70 114 62 164 89 240 130 44 24 103 55 130 70 51 28 157
85 255 137 30 17 100 54 155 83 55 29 105 56 110 60 6 4 55 31 110 60 151 79
161 87 195 140 74 116 39 266 -80 337 -19 11 -75 42 -125 69 -49 26 -124 66
-165 88 -42 23 -121 66 -178 96 -56 30 -98 57 -94 61 4 4 57 32 117 64 61 32
124 66 140 75 17 10 59 33 95 52 210 112 242 132 273 169 100 116 63 292 -78
368 -27 15 -99 54 -160 86 -60 33 -128 69 -150 81 -22 12 -68 37 -102 55 -35
18 -60 36 -55 40 4 3 48 28 97 54 50 26 118 63 153 82 34 19 104 57 155 83
111 59 159 103 181 166 20 60 20 108 0 166 -16 48 -70 112 -108 129 -11 5 -28
13 -36 18 -8 6 -64 37 -125 69 -244 131 -331 178 -445 240 -36 19 -94 51 -130
70 -36 19 -85 45 -110 59 -25 13 -83 45 -130 69 -47 25 -92 49 -100 55 -13 7
-166 90 -555 299 -44 23 -107 57 -140 75 -366 200 -388 210 -464 212 -42 1
-82 -5 -111 -16z"/>
</g>
</svg>
